<svg xmlns="http://www.w3.org/2000/svg" xmlns:xlink="http://www.w3.org/1999/xlink" width="139" height="20" viewBox="0 0 139 20">
    <defs>
        <path id="a" d="M0 .065h8.782v11.88H0z"/>
        <path id="c" d="M.477.399h16.182v15.538H.477z"/>
    </defs>
    <g fill="none" fill-rule="evenodd">
        <g transform="translate(0 3.601)">
            <mask id="b" fill="#fff">
                <use xlink:href="#a"/>
            </mask>
            <path fill="#000" d="M4.68 11.446c-.721 0-1.098-.281-1.183-.903V5.958c.172 0 .693-.031.895-.031 1.444 0 2.196 1.09 2.196 2.619 0 1.528-.55 2.9-1.909 2.9zM3.494.564c.259 0 .664-.032.866-.032.925 0 1.734.656 1.734 2.277 0 1.466-.548 2.588-2.022 2.588v-.032h-.578V.564zm2.311 5.05v-.153c1.33-.44 2.456-1.063 2.456-2.901C8.262.688 6.703.065 5.113.065H.03v.374c.231.033.78.156 1.069.314.347.185.435.498.435.87v8.887c0 .374-.088.686-.435.843-.202.093-.839.187-1.098.218v.375h5.026c1.936 0 3.756-.875 3.756-3.18 0-2.183-1.792-2.995-2.976-3.151z" mask="url(#b)"/>
        </g>
        <path fill="#000" d="M12.31 7.783c.922 0 1.066 1.433 1.066 2.712l-2.368.033c.029-1.685.52-2.745 1.301-2.745zm2.714 5.549c-.52 1.124-1.01 1.559-1.995 1.559-1.443 0-2.02-1.59-2.02-3.741v-.187h4.189v-.187c0-1.807-.752-3.398-2.832-3.398-2.052 0-3.208 1.996-3.208 4.146 0 2.34 1.07 4.272 3.323 4.274 1.3 0 2.31-.97 2.831-2.247l-.288-.22z"/>
        <path fill="#000" d="M20.946 8.656c0-.748-.491-1.278-1.1-1.278-.633 0-1.24.436-1.848 1.37h-.029V7.566l-.086-.126-2.745.219V8c.262.03.55.155.724.28.201.219.346.56.375.935v5.082c0 .405-.116.687-.375.78a3.803 3.803 0 0 1-.636.125h.028v.313H19.3v-.342c-.231-.031-.724-.093-.955-.218-.259-.127-.375-.407-.375-.78V9.31c.145-.312.55-.998 1.214-.998-.028.188-.144.405-.144.655 0 .655.434.966.954.966.578 0 .953-.592.953-1.278"/>
        <path fill="#000" d="M23.112 14.238V2.7l-.088-.125-2.975.186v.344c.261.03.81.219.984.343.23.187.374.59.374.998v9.852c0 .405-.087.687-.374.78-.174.063-.405.094-.637.125h-.027v.406h3.753v-.343c-.259-.032-.431-.125-.635-.22-.259-.155-.375-.434-.375-.808M26.09 5.225c.636 0 1.098-.561 1.098-1.246 0-.653-.462-1.186-1.098-1.186-.607 0-1.07.533-1.07 1.216 0 .655.463 1.185 1.07 1.216M27.07 14.143V7.565l-.086-.127-2.86.22v.34c.261.035.694.219.867.344.23.188.346.498.374.873v5.082c0 .374-.114.688-.374.782a4.004 4.004 0 0 1-.636.125v.312h3.755v-.345a1.678 1.678 0 0 1-.634-.217c-.29-.188-.405-.438-.405-.811M35.303 14.173V10.06c0-1.653-.634-2.714-1.963-2.714-1.215 0-1.733.78-2.254 1.435h-.029V7.565l-.116-.126-2.715.218V8c.26.031.55.155.724.28.2.186.345.56.374.935v5.082c0 .405-.116.688-.374.78a3.705 3.705 0 0 1-.637.125v.314h3.611v-.343a1.748 1.748 0 0 1-.609-.218c-.2-.127-.286-.407-.286-.78V9.403c.143-.405.606-1.09 1.5-1.09.55 0 1.013.56 1.013 1.775v4.178c0 .405-.088.687-.318.78-.144.064-.375.097-.607.125v.345h3.67v-.345c-.261-.03-.433-.125-.636-.218-.26-.156-.348-.406-.348-.78M39.264 7.783c.924 0 1.07 1.433 1.07 2.712l-2.37.033c.028-1.685.52-2.745 1.3-2.745zm2.716 5.549c-.52 1.124-1.011 1.559-1.993 1.559-1.445 0-2.022-1.59-2.022-3.741v-.187h4.188v-.187c0-1.807-.75-3.398-2.832-3.398-2.051 0-3.207 1.996-3.207 4.146 0 2.34 1.07 4.272 3.323 4.274 1.3 0 2.312-.97 2.832-2.247l-.29-.22z"/>
        <path fill="#000" d="M46.775 7.377c-.635 0-1.242.437-1.849 1.371h-.028V7.564l-.088-.125-2.716.218V8c.26.031.55.155.723.28.202.22.347.56.375.935v5.082c0 .405-.115.687-.375.78a3.66 3.66 0 0 1-.636.125v.314h4.045v-.343c-.231-.03-.721-.093-.953-.218-.26-.127-.375-.407-.375-.78V9.311c.144-.313.548-.998 1.213-.998-.027.187-.145.405-.145.654 0 .655.436.967.954.967.578 0 .954-.593.954-1.279 0-.748-.492-1.278-1.099-1.278M79.625 13.989V5.072c0-.374.087-.717.433-.843.231-.125.81-.22 1.04-.25v-.373h-3.784c0 .216-.115.87-.317 1.494l-2.283 6.86-2.83-8.325H68.04v.374c.376.03.954.157 1.301.499.315.283.432.717.432 1.435v6.36c0 1.34-.116 2.123-.461 2.402-.347.31-1.097.436-1.33.468h.03v.312h4.276v-.375c-.26-.031-1.184-.312-1.444-.562-.289-.311-.462-1.03-.462-2.37V5.104h.029l2.599 7.764c.201.654.549 1.899.694 2.43h.49l3.438-10.351h.029v9.01c0 .406-.144.717-.463.904-.175.125-.953.219-1.184.25v.375h5.113v-.375c-.259-.031-.895-.187-1.069-.28-.318-.187-.433-.466-.433-.841"/>
        <path fill="#000" d="M84.48 15.359c-1.184 0-1.56-1.81-1.56-3.896 0-1.654.26-3.68 1.56-3.68 1.213 0 1.53 1.9 1.53 3.74 0 2.089-.404 3.865-1.53 3.836m0-7.981c-2.08 0-3.466 1.713-3.466 4.208 0 2.62 1.558 4.21 3.408 4.21 2.282 0 3.497-1.964 3.497-4.302 0-2.372-1.303-4.116-3.44-4.116"/>
        <path fill="#000" d="M92.511 7.377c-.636 0-1.243.437-1.849 1.371h-.03V7.564l-.086-.125-2.714.218V8c.26.031.548.155.721.28.202.22.348.56.375.935v5.082c0 .405-.115.687-.375.78a3.69 3.69 0 0 1-.634.125v.314h4.044v-.343c-.232-.03-.724-.093-.953-.218-.26-.127-.377-.407-.377-.78V9.311c.145-.313.547-.998 1.214-.998-.03.187-.145.405-.145.654 0 .655.434.967.954.967.579 0 .954-.593.954-1.279 0-.748-.492-1.278-1.099-1.278M96.933 19.038c-1.386 0-1.906-.907-1.906-1.59 0-.97.315-1.5 1.01-1.716 1.127 0 1.879.03 2.167.094.577.25.664.777.664 1.184 0 1.31-.72 2.028-1.935 2.027m-.404-11.254c.78 0 1.04 1.058 1.04 2.212 0 1.123-.289 2.185-1.04 2.185-.634 0-1.011-.998-1.011-2.246 0-1.154.231-2.151 1.01-2.151m1.967 6.394c-.346 0-1.24-.063-1.675-.095-.694-.03-1.445 0-1.445-.78 0-.313.173-.498.375-.653h.894c1.303 0 2.631-.998 2.631-2.527 0-.655-.261-1.403-.724-1.87v-.095c.176-.25.377-.467.695-.498.088.593.289.872.721.872.435 0 .694-.375.694-.905 0-.529-.375-.873-.751-.873-.636 0-1.04.405-1.474 1.123-.202-.093-.922-.468-1.906-.468-1.388 0-2.773.872-2.773 2.587 0 1.062.635 1.902 1.76 2.372v.092c-.576.22-1.415.53-1.415 1.465 0 .968.925 1.373 1.531 1.593v.091c-1.503.063-2.254.81-2.254 1.779 0 1.308.924 2.119 3.264 2.215 2.545 0 3.757-1.31 3.757-2.994 0-1.527-1.04-2.369-1.905-2.431"/>
        <path fill="#000" d="M103.318 7.783c.925 0 1.07 1.433 1.07 2.712l-2.37.033c.03-1.685.52-2.745 1.3-2.745m.723 7.108c-1.444 0-2.022-1.59-2.022-3.741v-.187h4.19v-.187c0-1.807-.752-3.398-2.834-3.398-2.051 0-3.206 1.996-3.206 4.146 0 2.34 1.04 4.272 3.322 4.274 1.301 0 2.311-.97 2.832-2.247l-.29-.22c-.518 1.125-1.01 1.56-1.992 1.56"/>
        <path fill="#000" d="M111.262 15.046c-.143.063-.374.097-.606.125v.345h3.64v-.345c-.261-.03-.431-.125-.633-.218-.262-.156-.349-.406-.349-.78V10.06c0-1.653-.636-2.714-1.964-2.714-1.214 0-1.732.78-2.253 1.435h-.03V7.565l-.116-.126-2.715.218V8c.26.031.549.155.721.28.203.186.348.56.376.935v5.082c0 .405-.115.687-.376.78-.2.064-.402.094-.633.125v.314h3.64v-.343a1.746 1.746 0 0 1-.608-.218c-.203-.127-.289-.407-.289-.78V9.403c.146-.405.606-1.09 1.503-1.09.549 0 1.011.56 1.011 1.775v4.178c0 .405-.087.687-.319.78"/>
        <path fill="#000" d="M118.17 15.328c-.81 0-1.186-.78-1.36-1.31V9.03c.29-.467.666-.748 1.272-.748 1.242 0 1.647 1.714 1.647 3.399 0 2.337-.637 3.648-1.56 3.648m.577-7.95c-.865 0-1.56.684-1.874 1.121l-.061-.03v-.905l-.115-.094-2.776.218v.346c.26 0 .607.153.781.28.259.187.348.498.376.871v8.98c0 .375-.086.719-.376.812-.174.091-.521.155-.78.186l.029.343h4.306v-.343c-.26-.03-.839-.186-1.04-.28-.26-.124-.405-.405-.405-.811v-2.837h.06c.315.28.778.53 1.588.53 1.675 0 3.15-1.716 3.15-4.117 0-2.586-1.214-4.27-2.863-4.27M125.305 15.359c-1.185 0-1.56-1.81-1.56-3.896 0-1.654.262-3.68 1.56-3.68 1.214 0 1.53 1.9 1.53 3.74 0 2.089-.403 3.865-1.53 3.836m0-7.981c-2.08 0-3.465 1.713-3.465 4.208 0 2.62 1.557 4.21 3.408 4.21 2.282 0 3.495-1.964 3.495-4.302 0-2.372-1.3-4.116-3.438-4.116M132.007 10.618c-1.155-.437-1.618-.655-1.618-1.59 0-.623.317-1.216 1.069-1.216.867 0 1.647 1.029 1.878 2.12h.318l-.087-2.556h-.435l-.143.468c-.376-.28-.982-.468-1.62-.468-1.414 0-2.395 1.09-2.395 2.4 0 1.56 1.04 2.216 1.964 2.558 1.04.375 1.647.747 1.647 1.622 0 .809-.376 1.434-1.242 1.434-1.129 0-1.994-1.654-2.225-2.588h-.318l.058 2.838h.463l.202-.563c.26.313 1.04.719 1.847.719 1.445 0 2.63-.938 2.63-2.59 0-1.402-.838-2.151-1.993-2.588M138.624 13.24c-.058.718-.145 1.403-.81 1.403-.721 0-.953-.686-.953-1.528V8.344h1.877v-.716h-1.877v-2.62h-1.675v2.62h-1.33v.716h1.3v4.958c0 1.558.665 2.462 1.88 2.402 1.327 0 1.878-1.125 1.964-2.464h-.376z"/>
        <g transform="translate(49.113 -.398)">
            <mask id="d" fill="#fff">
                <use xlink:href="#c"/>
            </mask>
            <path fill="#000" d="M8.6 1.44l-.01.016-.01-.036.02.02zm.124 2.51c-.01-.036-.022-.074-.034-.11.02.003.038.004.056.002a.44.44 0 0 0 .048.047.563.563 0 0 0-.07.06zm-.65-.031a1.06 1.06 0 0 0 .059-.03.192.192 0 0 0 0 .04l-.001.01-.001.025-.04-.031-.017-.014zm8.06 11.817v-.001zm-5.18-.185a.046.046 0 0 0-.032.014l-.001.003a1.83 1.83 0 0 0-.306-.017c-.048-.345-.075-.643.009-.997l.006-.03.02-.087c.007.067.015.138.027.207a.05.05 0 0 0 .027.036c.009.004.019.007.028.003l.014.039c.05.14.108.297.206.325.026.008.068.008.114-.03l.002-.002a.048.048 0 0 0 .04.01.233.233 0 0 0 .035-.013.752.752 0 0 0 .025.137l.003.009a.234.234 0 0 0 .032.128c.007.01.024.038.048.059-.03.04-.046.095-.072.178l-.007.02a.284.284 0 0 0-.056.009.048.048 0 0 0-.036.048l-.037-.001c0-.005.003-.008.001-.012-.014-.036-.043-.036-.09-.036zm-1.685-.328c-.032-.178-.061-.344-.061-.526 0-.241.071-.403.162-.61l.056-.128c.052-.005.106-.007.159-.01a1.79 1.79 0 0 0 .19-.012c.04-.007.079-.01.115-.014.026-.002.05-.003.074-.006l-.001.002c-.002 0-.004.004-.005.006l-.003.01-.01.032a.052.052 0 0 0-.017.062c0 .004.002.008.003.01l.025.088c.04.148.065.228.109.252 0 .006.004.013.006.019a.052.052 0 0 0-.003.013c-.006.049-.017.113-.028.185-.046.284-.108.662-.023.856a.045.045 0 0 0-.005.013c-.005.029-.043.05-.077.066l-.027.003a1.487 1.487 0 0 1-.198.017.048.048 0 0 0-.044.033c-.13.009-.262 0-.345-.015-.012-.12-.033-.234-.052-.346zm-.756.343c-.007-.004-.009-.015-.015-.015H8.15c-.017 0-.028.015-.036.03-.017-.01-.034-.026-.045-.021-.006 0-.008.01-.013.013-.024-.008-.051-.017-.076-.017h-.012c-.01-.006-.017-.006-.043-.007-.06-.007-.11-.011-.142.014a.172.172 0 0 0-.133.005 1.8 1.8 0 0 0 .002-.395.996.996 0 0 1-.005-.07c0-.437.078-.766.195-1.205.007 0 .02.008.027.008.019 0 .038-.005.053-.016.014-.01.026-.041.033-.075a.265.265 0 0 0 .08.08c.078.063.182.056.27.052.066-.006.129-.008.173.017.192.082.194.436.196.72 0 .074 0 .145.004.208-.013.002-.026.004-.037.004-.025 0-.046.023-.046.05 0 .033.003.066.007.099.005.059.012.115-.005.167a.05.05 0 0 0 .007.044.044.044 0 0 0 .037.02h.004a.435.435 0 0 0-.133.289zm-.407.019v-.001.002-.001zm-2.588-4.518h-.005c-.022.003-.042.029-.042.054v.003l-.003.004-.009.01a.06.06 0 0 0-.008.063v.01l-.002.008c-.033.12-.052.205-.031.25a.303.303 0 0 0 .017.043.098.098 0 0 0-.063.022c-.029.022-.042.058-.04.119.006.029.023.07.072.084l-.015.05a2.054 2.054 0 0 0-.028.359c-.011.062-.022.125-.046.175l-.066-.058a.746.746 0 0 1-.127-.124c-.13-.163-.157-.302-.19-.48l-.032-.154a.051.051 0 0 0-.023-.031.705.705 0 0 0-.184-.333l.003-.005a.052.052 0 0 0-.015-.065c-.067-.047-.176-.126-.28-.163a.162.162 0 0 0-.056-.03.12.12 0 0 0-.023-.034.239.239 0 0 0-.122-.057h1.519c-.062.09-.13.192-.201.28zm.24-.557l-.014.116a.047.047 0 0 0-.018.006.923.923 0 0 0-.315-.04c-.124 0-.271.01-.435.022l-.135.009c.107-.022.24-.03.37-.036.213-.011.416-.023.55-.09l-.002.013zm5.03-1.41c.034.056.077.103.12.149.024.025.047.049.067.075l-.002.004a.624.624 0 0 1-.184-.225V9.1zm2.406 2.206a3.614 3.614 0 0 0-.175.506c-.026.085-.05.17-.077.25a4.158 4.158 0 0 0-.555.334 8.233 8.233 0 0 1-.274.179c.04-.171-.01-.436-.048-.64-.01-.058-.02-.11-.025-.146a4.661 4.661 0 0 1-.009-.061l-.006-.051a1.15 1.15 0 0 0 .031-.197.16.16 0 0 0 .01-.067c-.002-.014-.009-.024-.013-.033a.205.205 0 0 0-.082-.152l-.02-.154a.723.723 0 0 0-.08-.302l.05.013c.056.055.197.106.544.135.067.026.133.054.2.083.198.083.386.162.573.189 0 .008.003.015.006.02a.909.909 0 0 0-.05.094zm.573 3.64l-.01.01c-.024-.458.057-1.641.134-1.741.005-.003.01-.005.013-.01a.372.372 0 0 0 .083-.012c.002.055.013.12.028.198-.047.188-.11.363-.175.548l-.042.117a.057.057 0 0 0 .011.054c.004.004.01 0 .016.003-.013.02-.032.039-.038.06-.022.076-.002.148.027.22-.006.008-.018.012-.018.024 0 .09-.007.178-.014.262a3.017 3.017 0 0 0-.015.267zm-1.64-.774c.005-.05.01-.1.017-.15.02-.16.041-.323.038-.486l.01-.011.009-.01a.055.055 0 0 0 .004-.065.23.23 0 0 1-.014-.026l-.009-.014a1.573 1.573 0 0 0-.04-.164c-.026-.094-.053-.191-.05-.276h.51c.003.01.006.019.01.026l-.005.125c-.014.352-.015.596.02.729a.056.056 0 0 0-.015.037c0 .124-.004.257-.01.394-.011.353-.025.747.04 1.09l-.001.005a1.554 1.554 0 0 1-.032.177c-.073 0-.144 0-.212.003a1.814 1.814 0 0 0-.2-.013c-.165-.496-.15-.892-.07-1.371zM8.192 6.29c-.002-.034.015-.06.053-.104l-.001.02-.002.093-.05-.01zm.07 1.293a10.958 10.958 0 0 1-.038-.192.048.048 0 0 0-.037-.04.516.516 0 0 0 .003-.065.1.1 0 0 0 .065-.01c.006.087.012.164.019.236l-.012.07zm-.145 2.769a2 2 0 0 0-.003.145c-.042-.07-.094-.131-.14-.15.002-.045-.014-.063-.023-.093.012-.001.026-.006.033-.018a.051.051 0 0 0 .008-.045 1.662 1.662 0 0 0-.026-.076c-.017-.051-.03-.092-.03-.128 0-.02-.014-.03-.028-.038v-.04a.039.039 0 0 0 .013-.01c.031-.032.06-.072.091-.112l.023-.031c.04.209.062.406.082.596zm.588.962c-.007-.004-.012-.01-.017-.013a.514.514 0 0 0 .036-.005.116.116 0 0 0-.002.03c-.005-.003-.012-.01-.017-.012zm1.7.37l.003-.01c.002 0 .005 0 .008.002l-.011.009zm-2.746-.057h-.01l.002-.003c.003 0 .004.002.008.003zm1.86-4.875l-.017-.02a.559.559 0 0 0-.032-.035c0-.003.002-.005.003-.007l.047.025v.037zm-4.79 7.575c.006.009.013.015.021.022-.03.089-.033.259-.027.515l.001.08c0 .03-.001.074-.004.123-.008.189-.012.35.013.45h-.36l-.04-.002c-.096-.006-.195-.012-.294-.024a.688.688 0 0 0 .02-.112l.001-.011a.059.059 0 0 0 .023-.015c.016-.005.034-.011.06-.016l.009-.001c.184-.076.252-.193.317-.337 0-.002.002-.003.003-.005a.073.073 0 0 0 .019-.025.042.042 0 0 0 .006-.024l.015-.047c.012-.027.024-.056.04-.087l.004-.014c.066-.24.134-.486.175-.737a.516.516 0 0 0 .022.09.05.05 0 0 0-.029.032c-.018.064-.017.11.005.145zm.886 1.043a3.848 3.848 0 0 0-.115.12l-.036.04a11.841 11.841 0 0 0-.442-.01c.006-.032.004-.068 0-.105-.001-.028-.004-.06-.004-.096v-1.027c0-.405.021-.792.068-1.211a.151.151 0 0 0 .005-.021l.007-.053c0-.012.002-.027.004-.044a.056.056 0 0 0 .028-.014c.054.03.123.018.176.007.054-.01.107-.021.154.003a.191.191 0 0 0 .034.046c-.025.166-.05.329-.076.464 0 .003.004.004.004.007 0 .01-.01.017-.007.027.014.048.067.054.11.055.002.017.006.033.006.048 0 .008 0 .015.003.02.006.026.02.055.044.092l.005.072a.778.778 0 0 1 .007.096c0 .017.008.033.02.042 0 .027.005.053.01.079l-.001.002v.686c0 .006.008.007.01.013a1.854 1.854 0 0 0-.014.662zm7.3-.151l-.01-.033c0-.077-.008-.155-.016-.23-.006-.078-.014-.152-.014-.227v-1.344c0-.013.01-.06.018-.107l.024.11c.028.12.054.234.062.319l.001.03a.087.087 0 0 0-.003.05.868.868 0 0 0-.02.123c-.014.009-.027.019-.027.038v.312c0 .017.016.022.029.03v.655c0 .005.004.008.006.012-.003.006-.007.01-.007.018 0 .014.004.027.014.035.03.033.066.064.103.096.035.03.07.06.099.09.008.01.02.015.032.015.006 0 .01-.002.016-.004 0 .013.003.027.005.04-.001.005-.009.005-.009.009a.188.188 0 0 1-.009.024c-.008.019-.02.043-.02.07h.001c0 .028.009.05.017.069.006.014.007.013.007.013a.3.3 0 0 0 .03.11l-.028.009-.009-.001-.012-.001c-.02 0-.039-.001-.058.004-.037-.018-.063-.02-.088-.002-.014 0-.02.004-.036.006l-.052-.002c.032-.095-.01-.221-.047-.336zm-5.977.3c-.052 0-.078.025-.09.055a1.796 1.796 0 0 0-.229-.024c-.058-.004-.139-.01-.19-.016a2.676 2.676 0 0 0-.12-.39.043.043 0 0 0 .012.005c.018.007.036-.004.047-.021.05-.076.088-.178.122-.291a.343.343 0 0 0 .12.264l.034.035a.037.037 0 0 0 .047.009c.029.013.06.02.095.029l.025.007a.042.042 0 0 0 .011 0 .04.04 0 0 0 .016-.002c.01.005.021 0 .034-.003a.411.411 0 0 0 .046-.028c.015.007.035.008.048-.005.233-.187.224-.274.198-.531l-.007-.075c-.007-.066-.018-.13-.027-.192-.023-.155-.046-.302-.036-.46.02.006.045.009.07.013-.014.155.007.35.046.536-.002.004-.002.008-.002.013a6.9 6.9 0 0 1-.015.4c-.006.132-.014.268-.013.419l.006.028a.046.046 0 0 0-.007.025v.216a.227.227 0 0 1-.048.016.044.044 0 0 0-.028.019c-.039 0-.079 0-.118.002v-.002c0-.027-.022-.05-.047-.05zm7.843-5.946l.001.003-.028.096c-.023.073-.044.147-.068.22.029-.106.058-.214.095-.32zm1.843 6.089c-.01-.012-.02-.02-.034-.02a1.547 1.547 0 0 1-.058-.014.041.041 0 0 0-.018-.011c-.016-.007-.034-.01-.053-.014l-.035-.007a.263.263 0 0 0-.032-.008c-.072-.021-.094-.018-.095-.02a.169.169 0 0 1-.03-.007c-.022-.007-.05-.017-.07-.01a.728.728 0 0 1-.117.025l-.043.007h-.044a.109.109 0 0 0-.074-.033H15.2c-.016 0-.022.018-.03.032h-.007c-.022-.033-.075-.04-.208-.038a1.895 1.895 0 0 1-.132.006h-.148c-.223-.361-.27-.768-.152-1.278.095-.413.294-.994.453-1.075a.276.276 0 0 0 .038.043.053.053 0 0 0-.003.038c.009.026.035.037.059.032v-.001c.037-.013.073-.025.103-.037.024-.005.049-.013.077-.021a.56.56 0 0 1 .134-.031l.016.018c.05.058.118.127.196.166-.002.006-.01.009-.01.015a.12.12 0 0 0 .01.046l.004.01a.055.055 0 0 0-.004.067c.006.006.013.007.02.01v.052l.001.012-.03.104-.028.175c-.022.14-.046.299-.082.44a.684.684 0 0 1-.1.153c-.074.095-.156.203-.134.343a.054.054 0 0 0 .022.035c.001.01.004.022.007.033.005.018.02.029.035.033.012.005.029-.001.038-.01.021.037.069.04.115.04a.047.047 0 0 0 .031-.01l.007-.01a.19.19 0 0 0 .14-.061c.008-.008.01-.027.017-.038.009.014.02.028.035.028a.047.047 0 0 0 .044-.036l.033-.12c.048-.18.094-.35.141-.503a.051.051 0 0 0-.025-.06c-.005-.003-.008.005-.014.005.013-.045.03-.086.04-.134.028-.107.115-.456.101-.722a.052.052 0 0 0 .015-.053.442.442 0 0 1-.026-.068c0-.008-.002-.015-.003-.022a.056.056 0 0 0-.017-.03c-.017-.042-.033-.085-.048-.127a5.696 5.696 0 0 0-.115-.29c0-.001.004-.002.003-.005a.224.224 0 0 0-.026-.056c0-.016 0-.03-.005-.045.026-.021.036-.057.036-.122v-.002c0-.006-.008-.005-.01-.011 0-.007.004-.02.004-.026a.05.05 0 0 0 .006-.024c0-.061 0-.082.023-.133l.002-.006a.06.06 0 0 0 .003-.018v-.02-.727a.05.05 0 0 0-.017-.04c.006-.052-.018-.106-.065-.187l-.043-.078a.045.045 0 0 0-.035-.024h-.004c.015-.09-.028-.246-.076-.37a.038.038 0 0 0 .025-.014.097.097 0 0 0 .025-.09c.02-.026.035-.063.055-.105l.006-.017c.048-.02.093-.081.14-.144l.006-.008c.059-.023.11-.052.115-.103v-.001a.177.177 0 0 0 .04-.082 2.727 2.727 0 0 0 .012-.195.903.903 0 0 1 .018-.182c.004-.018-.001-.037-.014-.048l-.001-.001a.671.671 0 0 0 .017-.346c0-.006-.002-.01-.003-.015.005.003.008.01.015.01a.046.046 0 0 0 .041-.028.755.755 0 0 0 .028-.084c.007-.026.012-.05.022-.058a.052.052 0 0 0 .005-.064c-.005-.01-.016-.003-.023-.007 0-.01 0-.022-.003-.032-.004-.034-.005-.064-.007-.091-.004-.05-.007-.095-.019-.137l.004-.002a.05.05 0 0 0 .025-.03.623.623 0 0 0 .018-.125c.017-.003.033-.012.038-.03a.937.937 0 0 1 .056-.133c.021-.048.045-.098.06-.148a.053.053 0 0 0-.009-.047c-.01-.014-.03-.021-.042-.017-.02.004-.025.018-.04.024l-.001-.006a.047.047 0 0 0-.037-.02c-.026 0-.083-.022-.134-.041-.073-.027-.13-.048-.172-.05a.022.022 0 0 0-.004-.011.08.08 0 0 0-.03-.028.043.043 0 0 0-.049-.022c-.06.015-.12.023-.186.03a2.672 2.672 0 0 0-.186.029h-.004c-.279.022-.513.552-.58.718-.165.446-.312.884-.462 1.375a.054.054 0 0 0 .002.038.617.617 0 0 0-.058.14.086.086 0 0 0-.025.025.055.055 0 0 0-.001.058l.006.007a.229.229 0 0 0-.026.039c-.062.002-.12.008-.176.015-.067.008-.13.016-.199.016a.044.044 0 0 0-.032.013c-.166-.04-.477-.031-.762-.018a3.13 3.13 0 0 1-.13.005.043.043 0 0 0-.035.016h-.003a2.273 2.273 0 0 0-.506-.09 9.263 9.263 0 0 1-.693-.325l-.165-.082a.596.596 0 0 1 .05-.235.638.638 0 0 0 .041-.19c.011-.006.024-.013.028-.028l.012-.05c.022-.09.044-.176-.004-.222-.004-.005-.01-.002-.015-.005v-.012c-.015-.031-.037-.077-.063-.114l-.009-.026a.371.371 0 0 0-.01-.03c.002-.05.006-.095.012-.138a.95.95 0 0 0 .002-.2c.005-.004.012-.004.014-.011l.04-.118c.016-.042.032-.083.047-.132a.054.054 0 0 0-.017-.057c-.007-.006-.016 0-.025 0a1.281 1.281 0 0 0-.11-.218.25.25 0 0 0-.024-.142l-.002-.002c.034-.112.032-.164-.006-.19l-.015-.007a.104.104 0 0 0-.005-.016.049.049 0 0 0-.04-.026 3.19 3.19 0 0 1-.266-.014 3.987 3.987 0 0 0-.313-.016.045.045 0 0 0-.04.024.055.055 0 0 0-.006.022.1.1 0 0 0-.023.018.048.048 0 0 0-.034.04c-.02.125-.054.238-.09.354-.075-.385-.083-.778-.093-1.192-.004-.154-.008-.311-.015-.47a4.13 4.13 0 0 1-.015-.244c-.008-.222-.019-.474-.11-.622-.077-.105-.198-.171-.305-.231l-.005-.002-.022-.011c-.04-.022-.079-.043-.113-.066a.396.396 0 0 0-.061-.046c-.018-.008-.036-.007-.05.004-.005-.004-.011-.008-.018-.008-.016-.01-.032 0-.043.012l-.037.039c-.052.057-.116.124-.162.176l-.008.003c-.024.01-.04.037-.039.056a1.236 1.236 0 0 0-.019.244c0 .06-.001.126-.007.178a.05.05 0 0 0-.003.009c-.032.007-.047.034-.056.05l-.001.002c-.091-.032-.148-.075-.174-.13-.045-.092-.003-.222.045-.371.016-.047.032-.095.045-.145.052-.211.049-.355-.009-.453-.061-.1-.168-.134-.269-.153a.425.425 0 0 0-.31-.042.35.35 0 0 1-.056-.007c-.014 0-.026.002-.037.012a.056.056 0 0 0-.015.029l-.008.014c-.022 0-.043.017-.066.022a.444.444 0 0 0-.004-.156c-.011-.067-.024-.142-.005-.241.02-.203.134-.271.278-.356.055-.032.111-.064.166-.107.178-.133.29-.372.307-.657.02-.304-.075-.596-.243-.76-.045-.048-.103-.086-.16-.124-.096-.063-.188-.124-.202-.226-.034-.163.12-.27.27-.373l.013-.008.015-.011.01-.007h.001l.023-.016.005-.007.01-.007c.036-.028.073-.054.1-.081.198-.186.286-.47.372-.745l.017-.06a4.81 4.81 0 0 1 .054-.175c.067-.21.129-.407.053-.604a.196.196 0 0 0 .01-.04.054.054 0 0 0-.022-.048.043.043 0 0 0-.04-.004.082.082 0 0 0-.023 0 .055.055 0 0 0-.037.043.505.505 0 0 0-.12.109c-.012 0-.023.002-.033.009-.078.059-.172.114-.273.174-.27.16-.574.342-.642.636v.005A3.5 3.5 0 0 0 8.36.935C8.337.89 8.318.855 8.309.832 8.299.812 8.277.8 8.26.804H8.26a.038.038 0 0 0-.026.015c-.065.07-.108.126-.148.182l-.045.027a.056.056 0 0 0-.022.032.066.066 0 0 0 0 .034c-.004.02 0 .042.015.054h.002a.113.113 0 0 0 .026.039c-.161.04-.295-.066-.442-.185a1.57 1.57 0 0 0-.167-.126 3.22 3.22 0 0 0-.651-.342c-.015-.017-.042-.03-.084-.04A.04.04 0 0 0 6.682.5a.285.285 0 0 0-.063-.008c-.025 0-.047.022-.047.05 0 .048.015.084.034.11.044.133.09.256.136.379.04.11.082.22.123.339l.002.005.003.003c.018.037.154.289.287.382a.057.057 0 0 0 0 .057c.034.054.08.08.135.08h.012c.034.06.07.11.105.16l.065.097v.002s.002 0 .002.002a.25.25 0 0 0 .024.043l.03.044a.44.44 0 0 0 .012.03c.041.068.137.09.213.106.02.005.04.009.055.014l.047.04c.02.019.037.035.055.047a.77.77 0 0 0-.096.194.061.061 0 0 0-.001.026.488.488 0 0 0-.198.223.052.052 0 0 0-.023.017 1.07 1.07 0 0 0-.175.355l-.01.024-.01.029-.015.044a.054.054 0 0 0-.001.027c0 .008-.002.017 0 .028.02.128.039.23.057.33v.006c0 .005 0 .009.002.012l.027.152a.053.053 0 0 0 .022.033c.012.052.042.098.074.146.016.026.036.054.053.086a.049.049 0 0 0 .02.02c.042.022.085.047.13.07.131.074.267.15.393.2.001.017.01.03.022.04l.038.025c0 .11.003.226.028.342 0 .185 0 .345.031.505.001.003.004.003.006.007-.15.072-.28.187-.382.299l-.025.029c-.027-.01-.054-.015-.08-.021-.035-.008-.068-.015-.09-.027a.043.043 0 0 0-.049.006.517.517 0 0 0-.161.016.081.081 0 0 0-.036-.01c-.012.002-.015.012-.023.018-.001 0-.001-.003-.003-.003-.017-.006-.032 0-.044.015-.013.014-.03.027-.046.039a.296.296 0 0 0-.058.057c-.006.005-.014.002-.018.009l-.053.123a1.231 1.231 0 0 1-.087.182.052.052 0 0 0-.008.028.227.227 0 0 0-.03.139.195.195 0 0 0 .014.097.741.741 0 0 0-.004.234.058.058 0 0 0-.01.036c.016.14.022.292.03.439.004.1.012.2.02.298 0 .003-.005.003-.005.005v.005l.013.125c.011.135.04.265.064.39l.005.022a.05.05 0 0 0-.04.053c.029.5.058.968.087 1.435 0 .008.001.015.005.02a1.98 1.98 0 0 1-.223.115l-.013.006c-.005-.081-.007-.165-.01-.246-.006-.215-.014-.437-.073-.632-.076-.242-.186-.261-.325-.283a1.432 1.432 0 0 1-.141-.03c-.027-.006-.052.005-.071.02h-.012a.512.512 0 0 0-.234.075.313.313 0 0 0-.054-.03.046.046 0 0 0-.058.026.454.454 0 0 0-.033.2v.009c0 .022.01.04.028.047.004-.001.003.002.005.004.007.017.015.03.023.04-.058.055-.084.152-.106.242-.019.005-.038.018-.038.04 0 .039.01.053.016.075-.004.006-.014.006-.015.013-.036.308-.08.639-.138 1.027a.692.692 0 0 1-.036.01.405.405 0 0 0-.058.02c-.008-.002-.013-.012-.022-.01-.521.118-1.016.206-1.518.293h-.003a.515.515 0 0 0-.075.015c-.008 0-.011.002-.019.003-.003 0-.006.003-.008.004-.028-.007-.055-.017-.082-.003a.096.096 0 0 0-.077.03h-.259c-.093-.206-.162-.423-.23-.634-.071-.224-.145-.457-.248-.678-.147-.317-.369-.473-.599-.615l-.02-.015a3.401 3.401 0 0 0-.25-.177c-.015-.003-.024-.001-.033 0h-.002l-.039-.024a.049.049 0 0 0-.024-.007.558.558 0 0 0-.11.01l-.004-.002a.049.049 0 0 0-.058 0 1.359 1.359 0 0 1-.133.099 1.22 1.22 0 0 0-.175.145l-.01-.001c-.007-.015-.013-.034-.03-.034h-.116a.046.046 0 0 0-.043.03c-.002.006.003.01.003.015L1.5 8.68l-.037.013a.047.047 0 0 0-.031.039.053.053 0 0 0 .017.049l.014.01c.003.01.012.02.02.026.031.017.055.049.074.077l.026.033a1.216 1.216 0 0 0-.011.255c.002.04.004.08.004.123l.036.5.05.685c0 .008.003.016.007.023a.332.332 0 0 1 .05.07c.001.01.005.02.011.029.004.005.012.01.019.016.003.002.005.005.005.006.006.01.017.012.026.016l-.001.005c.005.022.023.038.045.038.029 0 .056.005.08.009.022.003.042.007.063.007.014 0 .028-.01.043-.016l.004.003c.042.03.089.069.139.064-.007.035-.01.074-.012.109-.004.036-.008.08-.015.102-.035.134-.094.256-.155.385-.035.076-.071.152-.104.233-.002.003 0 .007 0 .01-.001.004-.005.006-.005.01 0 .023.002.047.006.068a.057.057 0 0 0-.004.039c.03.112.053.225.075.334a4.799 4.799 0 0 0 .074.33.165.165 0 0 0-.005.04c0 .018.009.034.022.043a.765.765 0 0 0-.043.217l-.003.027a.072.072 0 0 0-.028.034.119.119 0 0 0-.008.026c-.192.119-.201.148-.201.433 0 .227.024.43.05.647l.008.076a.05.05 0 0 0 .037.043 4.93 4.93 0 0 0-.007.7c.001.013.006.024.014.033a.186.186 0 0 0 .044.035c0 .007.002.013.005.019a.072.072 0 0 0 .024.029c.003.055.017.096.042.123.017.019.043.03.07.032.022.01.042.016.06.019a.053.053 0 0 0 .014.025c.018.018.047.019.064-.001a.577.577 0 0 1 .103-.077c.069-.044.147-.095.167-.19.048-.124-.025-.287-.084-.417a.79.79 0 0 1-.056-.136 5.392 5.392 0 0 0-.016-.111c-.027-.191-.059-.41-.014-.558.059-.271.313-.338.555-.368.01 0 .02 0 .036.003.007 0 .013-.007.02-.011a3.26 3.26 0 0 1 .129-.012l.056-.005c.036.055.068.117.1.187.037.079.075.16.121.226a1.088 1.088 0 0 0-.01.317c.003.015.014.025.027.033a1.013 1.013 0 0 0-.005.334l.007.07v.11c-.003.142-.005.288.024.434a.056.056 0 0 0-.023.034c-.017.09-.034.193-.051.293-.01.066-.023.13-.034.192a.201.201 0 0 0-.023.037c-.022.005-.037.024-.037.049 0 .03-.007.048-.053.075h-.22c-.392 0-.793.007-1.18.014-.215.004-.431.008-.647.01-.026-.007-.05-.003-.057 0l-.093.002c-.093.002-.184.004-.275.004-.025 0-.047.023-.047.05 0 .007.01.006.012.012a.39.39 0 0 0-.12.15.052.052 0 0 0 .002.055c.008.012.023.02.037.02l.01-.001.006-.002.006.007c-.002.006-.011.006-.01.013.002.025.021.046.046.046.08 0 .162.002.241.004.166.006.334.004.502-.011.003 0 .003.008.008.008.02 0 .053.004.092.007.08.007.142.012.193.012a.281.281 0 0 0 .112-.018c.003.006.003.014.009.018.01.009.021.013.04.01.032-.01.064-.014.096-.02a.504.504 0 0 0 .062-.01l.33-.001c.145.034.246.034.294 0h.778c.014.004.025.003.04.005h.019l.028.003h.001c.028.002.053.003.07-.007l.912-.001.013.002c.037 0 .103.003.183.007.518.026.865.023 1.016-.048.003.023.023.04.045.04.073 0 .126 0 .178-.007a.047.047 0 0 0 .026.008h3.523c.089 0 .176-.002.259-.014.008.009.019.014.031.014h.232c.007 0 .014-.001.018-.005.325.075.726.048 1.08.024a7.964 7.964 0 0 1 .491-.02c.273 0 .551.009.821.016.27.008.55.016.825.016.024 0 .043-.02.046-.044.001-.011 0-.021-.005-.03.038.005.078.008.12.009a.056.056 0 0 0-.002.025c.004.023.022.04.046.04.864 0 1.758 0 2.626.03.006 0 .01.002.014-.001h.204a.096.096 0 0 0 .037.006c.015 0 .031-.002.047-.004l.021-.002h.001c.032-.003.066-.01.1-.013.046-.008.092-.016.125-.016.02 0 .04-.015.044-.036.038-.017.07-.041.08-.08.013-.038.003-.08-.03-.123z" mask="url(#d)"/>
        </g>
    </g>
</svg>
