<svg xmlns="http://www.w3.org/2000/svg" xmlns:xlink="http://www.w3.org/1999/xlink" width="113" height="18" viewBox="0 0 113 18">
    <defs>
        <path id="a" d="M0 .143h10.299v17.148H0z"/>
    </defs>
    <g fill="none" fill-rule="evenodd">
        <path fill="#000" d="M65.36 14.618l-.454-11.614c0-1.108.53-1.581 1.516-1.581V.869h-3.484l-4.167 11.22L54.683.87H50.82v.554c.985.079 1.364.394 1.742 1.343l-.455 12.011c0 1.422-.681 2.055-1.968 2.055v.631h5.073v-.631c-1.287 0-1.742-.633-1.742-2.055 0 0 .228-7.35.228-9.72.833 2.291 3.178 9.168 3.178 9.168s.607 1.58.833 2.45l.91-.08c.303-1.262.68-2.45 1.06-3.478l2.802-8.059c.076 1.422.304 9.56.304 9.56.074 1.82-.454 2.215-1.59 2.215v.63h5.831v-.63c-1.362 0-1.666-.476-1.666-2.215M49.608 13.908c-.832 1.58-2.12 2.843-4.24 2.843-3.257 0-6.21-2.37-6.21-7.822 0-4.82 2.876-7.427 6.058-7.427 2.65 0 3.482 1.106 3.787 2.765h.454s.303-2.844.379-3.713h-.456c-.226.237-.302.395-.529.632-1.136-.473-2.498-.71-3.711-.71-5.226 0-8.634 3.713-8.634 8.533 0 5.69 3.635 8.77 8.558 8.77 1.289 0 2.348-.316 2.954-.316.303 0 .605 0 .908.08l1.214-3.4-.532-.235zM32.57.867h-7.348c-.908 0-1.211 0-1.362-.396l-.38-.079-.378 3.557h.53c.379-1.58.605-1.976 2.045-1.976h2.196v12.33c0 2.134-.378 2.529-1.667 2.529v.631h5.68v-.631c-1.286 0-1.665-.395-1.665-2.45V1.974h2.196c1.135 0 1.59.474 1.666 1.975h.53L34.99.392h-.454c-.3.475-.605.475-1.968.475"/>
        <path fill="#000" d="M20.6 7.897c-.454-.315-.909-.632-1.514-1.026-1.137-.79-2.12-1.66-2.12-3.002 0-1.5 1.06-2.29 2.498-2.29 1.515 0 2.423.71 2.423 2.29l.531.079.379-3.398-.379-.08-.53.633c-.303-.16-1.212-.633-2.65-.633-2.5 0-4.394 1.58-4.394 3.951 0 2.055 1.062 3.32 2.727 4.425.455.395.985.712 1.59 1.108 1.818 1.421 2.348 2.132 2.348 3.555 0 1.736-1.212 3.319-3.03 3.319-2.348 0-3.483-1.264-3.786-3.002l-.53-.08-.38 3.714.455.16s.227-.395.53-.712c.227.158.681.395 1.287.553.608.237 1.44.396 2.5.396 3.258 0 5.303-2.054 5.303-4.823 0-1.897-.605-3.16-3.257-5.137"/>
        <g transform="translate(0 .172)">
            <mask id="b" fill="#fff">
                <use xlink:href="#a"/>
            </mask>
            <path fill="#000" d="M5.757 16.66c-1.213 0-1.667-.24-1.667-2.216V9.15h2.121c1.212 0 1.439.473 1.59 1.66h.53V6.386H7.8c-.151 1.026-.378 1.66-1.515 1.66H4.09V1.802h3.408c1.212 0 1.819.553 1.819 1.974h.605L10.3.143h-.53c-.226.474-.529.553-1.892.553H0v.553c1.213 0 1.667.476 1.667 1.581v11.614c0 1.82-.228 2.215-1.667 2.215v.632h5.757v-.632z" mask="url(#b)"/>
        </g>
        <path fill="#000" d="M80.054 11.299l2.121-7.19 2.272 7.19h-4.393zm28.932-9.877c.68 0 .984.236.984.711 0 .394-.075.79-.454 1.5l-2.348 5.295-2.423-5.453c-.152-.474-.303-.87-.303-1.265 0-.553.454-.79.983-.79V.867h-8.48v.553c1.287 0 1.663.395 1.663 2.134v8.612l-6.36-11.3h-3.862v.554c1.286 0 1.362.633 2.044 1.58v11.38c0 1.817-.227 2.134-1.136 2.45-.606-.317-.984-1.028-1.363-2.45L83.84.869h-3.408v.554c.53.08.833.236 1.059.789l-3.86 12.88c-.532 1.66-1.137 1.74-1.895 1.74v.63h4.164v-.63c-.455 0-1.136-.158-1.136-.791 0-.71.911-3.32.987-3.636h4.997l.682 2.292c.15.554.226 1.106.226 1.422 0 .475-.605.713-1.288.713v.63h8.938v-.63c-1.211 0-1.663-.395-1.663-2.45V4.898l7.42 12.957.983-.08c-.077-1.103-.152-2.052-.152-2.052V3.554c0-1.264.228-1.818.985-2.134.38.237.607.552 1.211 1.976l3.333 7.348v3.713c0 1.897-.453 2.373-1.667 2.373v.63h5.758v-.63c-1.212 0-1.664-.476-1.664-2.373v-4.344l3.104-6.638c.454-1.106 1.059-2.053 2.045-2.053V.868h-4.014v.554z"/>
        <path fill="#000" d="M72.329 10.115h-.684v-8.14h.382c2.952 0 4.088.947 4.088 3.95 0 3.004-1.287 4.19-3.786 4.19M71.951.868H67.56v.554c1.212 0 1.665.315 1.665 2.053v11.14c0 1.742-.453 2.216-1.665 2.216v.631h5.83v-.631c-1.286 0-1.744-.395-1.744-2.134v-3.398h1.138c2.878 0 5.908-1.66 5.909-5.453 0-3.635-2.498-4.978-6.74-4.978M48.925 9.006c0 2.214-.605 4.348-2.573 4.348-2.046 0-2.652-2.134-2.652-4.269 0-2.29.683-4.266 2.652-4.266 1.818 0 2.575 2.054 2.573 4.187m-7.42.081c0 3.082 1.969 5.216 4.847 5.216 2.65 0 4.771-2.292 4.771-5.216 0-3.004-2.045-5.216-4.771-5.216-2.802 0-4.847 2.291-4.847 5.216M10.831 9.56l1.136-3.871 1.212 3.872H10.83zm2.197 3.238v.556h4.015V12.8c-.607 0-.985-.395-1.363-1.736 0 0-.531-1.582-2.5-7.587h-2.424v.553c.454 0 .681.238.757.553l-2.271 7.112c-.305.87-.606 1.105-1.364 1.105v.556h2.954v-.556c-.454 0-.758-.236-.758-.553 0-.316.076-.553.152-.79l.303-1.027h2.955c.15.473.302 1.105.302 1.105.075.238.15.476.15.79 0 .239-.15.474-.908.474z"/>
    </g>
</svg>
