<svg xmlns="http://www.w3.org/2000/svg" xmlns:xlink="http://www.w3.org/1999/xlink" width="113" height="20" viewBox="0 0 113 20">
    <defs>
        <path id="a" d="M.823.14h12.215v10.83H.823z"/>
        <path id="c" d="M.85.149h11.27V15.75H.85z"/>
    </defs>
    <g fill="none" fill-rule="evenodd">
        <path fill="#000" d="M1.605 13.233c.01.243.398 2.43 2.748 2.29 2.666-.157 2.893-.463 3.13-.622-.02.021 0-1.31 0-1.31l-1.447.04s-.815-.052-.946-.966c-.006.002-.027-6.141-.027-6.141l2.261.011v-1.76H4.998l.013-2.502-3.445.515v1.934L0 4.96v1.537h1.618l-.013 6.737zM7.686 1.565l1.236.554.014 11.697-1.171.463.013.958 5.707.007v-.953l-1.15-.502.006-6.917s.65-.29 1.552-.29c.901 0 1.316.58 1.316.939v6.288l-1.053.47v.965h5.694v-.927l-1.17-.577V6.652s.027-2.249-2.565-2.137c-1.576.01-2.692.51-3.79 1.384 0-.001 0-5.891.007-5.899L7.679.671l.007.894zM26.3 8.931l-2.893.13s-.02-1.487.276-2.431c.235-.753.71-1.002 1.259-1.003.913-.001 1.142.515 1.243 1.147.148.91.124 2.146.114 2.157M24.95 4.523c-4.534.216-5.105 3.706-5.077 5.962.26 3.646 2.127 5 5.635 5.055 2.771-.094 3.775-1.563 3.775-1.563v-.987s-1.302.392-2.668.385c-3.237-.023-3.2-3.086-3.2-3.086h6.268c.132-2.307-.107-5.986-4.733-5.766M52.528 4.525l-4.634.728v.874l1.222.622v6.288s-.315.265-1.327.344c-1.013.08-1.474-.888-1.474-.888V4.497l-4.654.729v.913l1.196.583v5.891s.061 2.893 2.88 2.925c2.288.027 3.433-1.575 3.433-1.575v1.55l4.51-.543v-.834l-1.152-.67V4.525zM59.732 13.251c-.29.177-.596.34-1.056.37-.402 0-1.286-.167-1.282-1.582.004-1.882 2.338-1.67 2.338-1.67v2.882zm3.437-5.891c0-2.294-2.65-2.921-4.482-2.921-1.833 0-4.055.814-4.055.814l-.01 2.782h1.832l.781-2.143s-.008-.01 1.099-.02c1.106-.01 1.3 1.282 1.3 1.282l.01 2.135s-1.088.178-3.431.627c-2.371.454-2.277 2.563-2.277 2.621 0 .056-.25 2.957 3.004 2.957 2.79 0 2.883-1.5 3.143-1.506 0 .917 1.03 1.525 2.222 1.525 1.19 0 1.999-.44 1.999-.44v-.758l-1.135-.6V7.36zM69.046 6.696c-.002.007.018-2.295.018-2.295l-4.547.721v.954l1.171.563v7.086l-1.087.562v.898h5.987v-.861l-1.43-.58.009-5.851s.91-.364 1.831-.364c.922 0 1.377.102 1.377.102V4.57s-1.948-.614-3.329 2.125M79.212 13.434s-.368.187-1.055.187c-1.117 0-2.062-.764-2.055-3.23.006-2.152.318-3.843 1.253-4.286.935-.444 1.814.165 1.857.224v7.105zM82.693.179l-4.62.73v.928l1.143.552v2.509s-.8-.385-1.767-.385c-.966 0-4.918.15-5.03 5.616-.111 5.466 4.11 5.393 4.073 5.393-.037 0 1.933.056 2.827-1.105-.004 0-.01 1.1-.01 1.1l4.468-.548v-.89l-1.072-.553L82.693.179zM88.793 4.443l-4.722.676v.913l1.236.61v7.095l-1.131.517v.966h5.681v-.927l-1.079-.529zM86.97.01c1.05 0 1.9.857 1.9 1.913a1.906 1.906 0 0 1-1.9 1.913c-1.05 0-1.9-.856-1.9-1.913 0-1.056.85-1.913 1.9-1.913M96.047 13.24c-.289.175-.597.34-1.055.37-.402 0-1.287-.167-1.283-1.584.003-1.88 2.338-1.67 2.338-1.67v2.883zm3.436-5.892c0-2.294-2.65-2.92-4.482-2.92-1.833 0-4.054.812-4.054.812l-.01 2.783h1.832l.781-2.144s-.01-.01 1.097-.02c1.108-.008 1.3 1.282 1.3 1.282l.01 2.136s-1.086.177-3.429.626c-2.372.455-2.278 2.564-2.278 2.622 0 .055-.25 2.957 3.004 2.957 2.79 0 2.884-1.503 3.143-1.506 0 .917 1.032 1.525 2.222 1.525 1.191 0 1.999-.44 1.999-.44v-.758l-1.135-.6V7.348z"/>
        <g transform="translate(99.962 4.277)">
            <mask id="b" fill="#fff">
                <use xlink:href="#a"/>
            </mask>
            <path fill="#000" d="M11.908 2.894S11.986.247 9.317.247c-2.67 0-3.84 1.415-3.84 1.415L5.465.141.823.88v.888l1.25.597v7.149l-1.144.463v.993h5.68V9.99l-1.054-.503v-6.91s.567-.265 1.396-.265c.828 0 1.472.37 1.472 1.191v5.984l-1.166.576-.005.88h5.787v-.94l-1.131-.476V2.894z" mask="url(#b)"/>
        </g>
        <g transform="translate(29.554 4.277)">
            <mask id="d" fill="#fff">
                <use xlink:href="#c"/>
            </mask>
            <path fill="#000" d="M6.274 14.477c-1.907 0-2.59-.781-2.59-1.536 0-.754.466-1.065.466-1.065l4.135-.006s.823.092.823.82c0 1.118-.928 1.787-2.834 1.787M6.268 1.405C7.55 1.398 7.556 2.736 7.563 3.3v1s.17 1.8-1.184 1.806c-1.355.007-1.315-1.046-1.315-1.807V3.12s-.078-1.707 1.204-1.714m2.642 7.3H4.781s-.618-.065-.644-.7c-.026-.637.421-.796.421-.796s.88.267 1.801.267c.92 0 4.538-.385 4.538-3.535 0-1.431-1.118-2.25-1.118-2.25l2 .54-.034-2.068-2.886.535s-1.5-.55-2.564-.55c-.717 0-4.412.286-4.547 3.553-.096 2.306 1.838 3.166 1.824 3.166-.014 0-1.842 1.138-1.854 2.555-.013 1.364 1.534 1.782 1.65 1.812-.149-.004-2.517.444-2.517 2.12 0 1.602 2.63 2.382 5.418 2.396 2.787.014 5.851-.78 5.851-4.104s-3.21-2.94-3.21-2.94" mask="url(#d)"/>
        </g>
    </g>
</svg>
