<svg xmlns="http://www.w3.org/2000/svg" width="130" height="15" viewBox="0 0 130 15">
    <g fill="#000" fill-rule="evenodd">
        <path d="M72.94 4.212c-1.397-.696-2.85.309-3.912 1.229V2.813h-2.653v.51h.53v7.143h2.123v-4.31c.53-.608 1.351-1.377 2.189-1.049.374.164.444.454.513.784.132.71.1 2.534.047 4.575h1.766s.109-1.854.14-3.604c.021-1.086.18-2.087-.743-2.65M45.417 3.834v.51h1.061V8.76c-.53.475-1.225.91-1.893 1.083-.348.08-.649-.06-.776-.369-.513-1.243-.067-5.528-.067-5.528l-2.884-.058v.456h1.012c-.087 1.02-.279 2.027-.262 3.033.035 1.088.062 2.357.69 3.037 1.063 1.069 3.915-.684 4.18-.854v.906h1.858V3.834h-2.919zM52.314 2.813s-.36.236-.929.492c-.42.188-.928.36-.928.36v.168h-1.326v.511h1.37l-.088 6.122h1.986l-.109-6.122h1.35v-.51h-1.326v-1.02zM76.683 8.327c-.379-1.155-.388-2.49.573-3.396.421-.36.984-.54 1.462-.391.567.15 1.026.659 1.2 1.13l-3.235 2.657zM75.7 4.775c-1.118.884-1.462 2.317-1.061 3.68.315 1.09 1.262 2.166 2.44 2.415 1.29.273 2.858-.023 3.712-1.031l-.544-.574c-1.447 1.646-2.902.729-3.256-.185l4.107-3.455c-1.95-2.673-4.42-1.668-5.398-.85zM55.595 4.668c1.031-.46 2.464.029 3.336.693l.538-.708c-1.485-.784-3.923-1.27-5.266-.021-.43.41-.562 1.183-.368 1.855.183.646.803 1.087 1.396 1.325.799.311 1.614.345 2.244.708 1.418.8.112 2.15-2.17 1.354-.447-.165-.849-.311-1.318-.608l-.346 1.14c1.484.494 3.613.732 4.956-.272.575-.443.916-1.077.83-1.786-.27-1.735-2.628-1.93-3.352-2.157-1.115-.292-1.257-1.147-.48-1.523M125.271 10.415c-1.034 0-1.87-1.293-1.87-2.888 0-1.594.836-2.886 1.87-2.886 1.033 0 1.87 1.292 1.87 2.886 0 1.595-.837 2.888-1.87 2.888m3.814-6.297a.914.914 0 0 0-.842.543c0 .003-.114.27-.09.534a2.61 2.61 0 0 0-.381-.367c-1.135-.954-3.02-1.09-4.328-.442-1.413.715-2.147 2.145-1.938 3.677.123 1.294 1.31 2.486 2.514 2.894-.209.084-.811.228-.842.907-.02 1.18 1.905.557 2.848.882a.556.556 0 0 1 .314.63c-.07.221-.277.391-.488.46-.89.29-1.806-.183-2.452-.78l-.689.524c.413.324.827.624 1.28.778.786.29 2.606.423 3.456-.73.182-.24.256-.73.082-1.035-.628-1.022-2.06-.54-2.904-.657-.468-.054-.802-.736.898-.872 1.29-.05 2.478-.787 3.14-1.91.558-.95.4-2.366-.016-3.303.201.048.357.061.476.05A.903.903 0 0 0 130 5.01a.903.903 0 0 0-.915-.892M98.72 1.62c.507 0 .918.4.918.895a.907.907 0 0 1-.918.895c-.508 0-.92-.4-.92-.895 0-.494.412-.895.92-.895M90.347.007h-7.719l-.107 1.84C84.108.898 84.697.66 86.467.66c0 0 .925-.018 1.388-.018l-4.471 9.824h6.468s.404-.863.456-.97c-1.308.292-2.928.559-4.342.511l4.381-10zM109.087 4.344h1.06V8.76c-.53.477-1.24.91-1.91 1.083-.347.08-.657-.115-.784-.424-.515-1.242-.08-5.585-.08-5.585h-3.857V2.815s-.36.235-.929.49c-.42.19-.929.362-.929.362v.166h-1.327v.511h1.292l-.088 6.122h1.987l-.11-6.122h2.093c-.086 1.02-.28 2.027-.262 3.033.034 1.088.08 2.357.708 3.037 1.062 1.069 3.931-.684 4.196-.854v.906h1.858V3.833h-2.918v.511z"/>
        <path d="M92.352 8.328c-.38-1.156-.388-2.49.573-3.396.422-.361.983-.54 1.462-.392.566.15 1.025.66 1.2 1.13l-3.235 2.658zm-.985-3.553c-1.115.885-1.46 2.317-1.06 3.68.316 1.09 1.263 2.166 2.44 2.415 1.291.274 2.858-.022 3.714-1.03l-.546-.574c-1.447 1.646-2.901.729-3.256-.185l4.11-3.455c-1.954-2.674-4.422-1.669-5.402-.851zM96.618 4.473h1.06v6.122h2.123V3.963h-3.183zM63.7 10.164c-.832-.128-1.331-1.014-1.488-1.762-.226-1.326-.228-2.997 1.026-3.709.625-.334 1.748-.082 2.292.672l.4-.57c-.837-.732-2.168-.965-3.265-.677-1.114.306-2.196 1.36-2.405 2.482-.244 1.31.134 2.532 1.168 3.468.959.865 2.447 1.037 3.712.607.438-.13.825-.413.825-.412l-.654-.702c-.26.234-.963.69-1.61.603M14.379 4.344h1.061V8.76c-.53.476-1.239.91-1.907 1.082-.348.08-.668-.06-.795-.369-.512-1.242-.065-5.527-.065-5.527l-2.88-.058.001.456h1.01c-.085 1.02-.279 2.027-.26 3.033.035 1.088.075 2.357.703 3.038 1.063 1.068 3.928-.685 4.193-.855v.906h1.857V3.834h-2.918v.51zM16.234 1.62c.507 0 .92.4.92.895a.908.908 0 0 1-.92.895c-.508 0-.92-.4-.92-.895 0-.494.412-.895.92-.895M23.496 7.344s-.091 2.618-1.604 2.618c-1.513 0-1.46-2.63-1.46-2.63s.025-2.463 1.604-2.463c1.578 0 1.46 2.475 1.46 2.475zm-.628-4.02h.53v1.62s-1.33-1.492-3.344-.46c-1.206.696-1.712 1.956-1.573 3.251.088 1.157.68 2.348 1.852 2.808 1.082.392 2.27.036 3.065-.715v.638h1.857V2.813h-2.387v.51zM12.055 1.62c.507 0 .918.4.918.895a.907.907 0 0 1-.918.895.907.907 0 0 1-.919-.895c0-.494.412-.895.919-.895"/>
        <path d="M1.046 9.25c1.39 1.118 7.192 3.099 8.17-1 .158-.835-.035-1.673-.63-2.194-1.293-1.176-4.424-2.11-4.424-2.11s-2.345-.587-2.315-1.74c.03-.645.734-1.09 1.257-1.262 2.026-.56 4.051.471 5.588 1.611l1.592-1.322-.317-.289-.7.565C7.504.214 5.03-.471 2.827.369 1.854.721.731 1.677.626 2.75c-.156 1.123.49 2.06 1.398 2.69 1.728 1.175 4.157.9 5.571 2.534.847 1.096-.16 2.838-3.225 1.71-1.183-.487-1.462-.654-2.756-1.592L0 9.688l.322.274.724-.713zM36.348 8.327c-.378-1.155-.388-2.49.573-3.396.422-.36.98-.54 1.462-.391.567.15 1.025.659 1.201 1.13l-3.236 2.657zm-.984-3.552c-1.118.884-1.464 2.317-1.061 3.68.313 1.09 1.261 2.166 2.44 2.415 1.291.273 2.856-.023 3.711-1.031l-.544-.574c-1.447 1.646-2.9.729-3.254-.185l4.106-3.455c-1.952-2.673-4.42-1.668-5.398-.85zM31.3 7.347s-.09 2.616-1.603 2.616c-1.514 0-1.46-2.628-1.46-2.628s.025-2.464 1.603-2.464c1.579 0 1.46 2.476 1.46 2.476zm-.739-4.024h.53v1.622s-1.273-1.49-3.289-.46c-1.204.698-1.71 1.958-1.57 3.253.087 1.157.679 2.348 1.85 2.808 1.082.39 2.48.036 3.01-.717v.637h1.857V2.813h-2.388v.51zM119.186 3.926c-1.29-.256-2.407.713-3.467 1.563V3.833h-2.653v.511h.794v6.122h1.859v-4.21c.53-.63 1.392-1.31 2.234-1.135 1.325.277.832 3.814.709 5.345h1.945c.041-1.276.028-2.53.02-3.705-.023-2.505-1.069-2.76-1.44-2.835"/>
    </g>
</svg>
