<svg xmlns="http://www.w3.org/2000/svg" xmlns:xlink="http://www.w3.org/1999/xlink" width="117" height="18" viewBox="0 0 117 18">
    <defs>
        <path id="a" d="M0 0h117v17.924H0z"/>
    </defs>
    <g fill="none" fill-rule="evenodd">
        <mask id="b" fill="#fff">
            <use xlink:href="#a"/>
        </mask>
        <path fill="#000" d="M3.136 16.127h.344V1.785h-.344v14.342zM4.838 1.785c1.429 0 2.71.074 3.943.564 2.046.836 4.018 3.218 4.018 6.656 0 4.617-2.91 7.122-7.96 7.122V1.785zm5.027.197c2.638 1.131 4.733 3.66 4.733 7.025 0 2.605-1.454 5.525-4.757 6.901l-.05-.097c2.885-1.35 4.438-4.006 4.438-6.804 0-3.22-2.073-5.797-4.414-6.95l.05-.075zM1.78 3.334V14.58c0 1.498-.197 1.72-1.627 2.041a.344.344 0 0 0 0 .376H6.29c5.62 0 9.713-3.129 9.713-7.992 0-3.169-1.996-6.09-4.807-7.22C9.67 1.166 7.822.914 5.653.914H.055A.32.32 0 0 0 0 1.1v.003c0 .069.018.137.055.186 1.432.324 1.726.741 1.726 2.045zM20.145 16.126h.344V1.784h-.344v14.342zM23.323 1.29a.355.355 0 0 0 0-.376H17.31a.347.347 0 0 0 0 .376c1.306.25 1.478.642 1.478 1.797v11.738c0 1.155-.172 1.547-1.478 1.796a.347.347 0 0 0 0 .376h6.014a.355.355 0 0 0 0-.376c-1.307-.249-1.48-.641-1.48-1.796V3.087c0-1.155.173-1.548 1.48-1.797zM27.686 16.138h.345V1.744h-.345v14.394zm10.255-3.425c-1.921 2.81-4.115 3.429-7.568 3.429h-.985v-6.88h2.145c1.824 0 2.834.493 3.919 1.948.122.05.27 0 .296-.149l-1.035-2.267 1.035-2.266c-.026-.123-.148-.198-.296-.148-1.085 1.455-2.094 1.946-3.919 1.946h-2.145V1.747h.838c3.698 0 5.225.961 7.296 3.498.122.075.295 0 .295-.146-.69-1.404-1.33-2.835-1.849-4.29-.369.05-1.551.075-1.996.075h-9.12a.33.33 0 0 0 0 .37c1.306.245 1.478.641 1.478 1.797v11.785c0 1.155-.171 1.552-1.477 1.8a.327.327 0 0 0 0 .368h9.538c.493 0 1.506.024 1.996.073.518-1.428 1.16-2.836 1.851-4.215-.027-.15-.172-.198-.297-.15zM70.117 16.138l8.307-14.393h.42l-8.307 14.393h-.42zm10.724-3.523c-1.579 2.342-3.28 3.527-7.249 3.527h-1.551l8.774-15.136V.883H72.78c-.665 0-1.75-.026-2.462-.075-.493 1.406-1.111 2.811-1.777 4.263.024.098.197.173.297.123 1.503-2.169 2.637-3.45 6.925-3.45h1.16l-8.778 15.133v.124h8.432c.886 0 1.799.025 2.686.073.543-1.451 1.183-2.88 1.874-4.337-.025-.099-.172-.172-.296-.122zM85.055 16.138h.344V1.744h-.344v14.394zm10.254-3.425c-1.923 2.81-4.115 3.429-7.568 3.429h-.986v-6.88H88.9c1.826 0 2.835.493 3.92 1.948.122.05.27 0 .294-.149l-1.035-2.267 1.035-2.266c-.024-.123-.147-.198-.293-.148-1.087 1.455-2.096 1.946-3.92 1.946h-2.145V1.747h.838c3.698 0 5.228.961 7.297 3.498.124.075.296 0 .296-.146-.69-1.404-1.33-2.835-1.85-4.29-.369.05-1.551.075-1.997.075H82.22a.337.337 0 0 0 0 .37c1.306.245 1.478.641 1.478 1.797v11.785c0 1.155-.17 1.552-1.478 1.8a.334.334 0 0 0 0 .368h9.539c.493 0 1.504.024 1.997.073.518-1.428 1.158-2.836 1.85-4.215-.024-.15-.173-.198-.297-.15zM99.698 16.126h.344V1.784h-.344v14.342zm3.177-14.836a.355.355 0 0 0 0-.376h-6.013a.347.347 0 0 0 0 .376c1.306.25 1.48.642 1.48 1.797v11.738c0 1.155-.173 1.547-1.48 1.796a.347.347 0 0 0 0 .376h6.013a.355.355 0 0 0 0-.376c-1.306-.249-1.478-.641-1.478-1.796V3.087c0-1.155.17-1.548 1.478-1.797zM109.975 16.126h.345V1.732h-.345v14.394zM112.268.868h-4.24c-.592 0-2.294-.025-2.885-.074-.516 1.381-1.156 2.763-1.848 4.143 0 .123.172.196.298.147 1.97-2.588 3.448-3.351 5.029-3.351V14.82c0 1.158-.173 1.552-1.48 1.802a.347.347 0 0 0 0 .376h6.014a.35.35 0 0 0 0-.376c-1.307-.25-1.479-.644-1.479-1.802V1.732c1.577 0 3.104.763 5.029 3.351.121.049.294-.024.294-.147a43.74 43.74 0 0 1-1.847-4.143c-.862.05-1.997.075-2.885.075zM55.03 13.33c-.08.082-.144.171-.275.18-.12-.025-.257-.042-.313-.159-.09-.12.007-.252.04-.365.14-.117.332-.152.468-.017.066.1.122.23.08.361m-.168-.672c-.186-.032-.403-.01-.548.13-.138.166-.17.46-.105.697.122.165.29.245.492.286.266.017.467-.179.566-.392.012-.155.012-.337-.05-.475-.074-.15-.217-.182-.355-.246" mask="url(#b)"/>
        <path fill="#000" d="M55.909 13.247c.026.099-.024.17-.039.26-.146-.047-.13-.237-.154-.373 0-.14 0-.28.08-.387.113.122.131.322.113.5m-.305.713c-.283.123-.622-.09-.935-.031-.233.064-.462.155-.71.08-.169-.33.128-.648.027-1-.058-.205-.188-.435-.075-.655.323-.172.572.178.903.057.266.019.515-.33.726-.015.096.179-.041.344-.057.515-.055.295.016.55.153.779a.345.345 0 0 1-.032.27m-1.153.387l-.057-.05c.178-.156.466-.137.685-.104l.082.047c-.177.163-.46.139-.71.107m-.79-.724c-.065-.017-.105-.099-.105-.164 0-.195-.057-.45.047-.614.074-.024.09.066.114.09.057.207.066.5-.056.688m.919-1.615c.146.034.289-.023.42.058-.048.14-.243.116-.388.116-.105-.033-.218.033-.275-.083.05-.065.163-.065.243-.09m.131-.236a1.423 1.423 0 1 0 .001 2.845 1.423 1.423 0 0 0 0-2.845" mask="url(#b)"/>
        <path fill="#000" d="M45.719.31c.033.115-.048.18-.105.255-.04.025-.095.048-.144.025-.064-.033-.007-.123 0-.164.055-.05.153-.155.249-.116zm.017.82c.039-.116.226-.147.28-.033.009.114.041.23.009.345-.096.058-.176-.032-.257-.058-.05-.067-.058-.164-.032-.255zm.225-.695c.096-.042.227-.083.329-.034.024.164-.152.277-.282.36a.465.465 0 0 1-.233.008c-.032-.131.12-.227.186-.334zm.655.154c.095 0 .198-.008.281.04l.015.083c-.2.057-.418.335-.62.131.033-.123.177-.238.324-.254zm.667.344c.065.074.18.114.218.196.025.1-.08.066-.138.074-.21-.066-.46.083-.63-.082v-.057c.178-.065.372-.196.55-.131zm.453.72c.007.035-.015.068-.048.06-.225-.091-.51-.041-.686-.222 0-.1.123-.049.186-.083.183 0 .442.05.548.246zm.143.83c-.096-.024-.152-.082-.227-.14-.19-.18-.523-.197-.563-.5.137-.073.29.018.429.058.104.066.218.14.274.245.03.098.12.213.087.337zm.034 2.157c.065-.007.105-.058.105-.121-.007-.208-.04-.422-.007-.619.04-.04.097-.064.123-.121-.012-.22.015-.475.023-.721.11-.018.072-.167.08-.24.037.082.1.149.127.255.024.049.08.106.08.164.14.14.168.36.29.532.209.385.492.648.766.985.056.114-.015.238.025.352.039.098.16.262.073.344-.258.024-.509-.147-.743 0-.216-.058-.459.042-.619.188-.146-.04-.227-.122-.323-.228.058-.262-.096-.534 0-.77zm.322-2.626c.129-.032.208.05.281.108.082.097.075.278.186.337.113-.1-.007-.247.08-.337.097.023.106.147.146.22 0 .345-.153.845.096 1.092.13-.033.194-.132.226-.272.04-.189-.024-.387.019-.583.095.04.12.123.152.213.055.172-.097.337 0 .467.096-.016.217 0 .266.116.008.066.008.18-.09.18-.202.048-.299.287-.355.467-.193-.123-.208-.37-.32-.534-.268-.27-.268-.802-.55-1.131-.034-.114-.202-.195-.137-.343zm.844.78c.057.049.034.139.027.197L49.064 3c-.03-.042-.03-.157.015-.206zm.573-.026l.066.027c.072.105.248.229.153.393h-.049c-.009-.083-.113-.121-.17-.19v-.23zm.397-.605c.113.056.29.04.315.197-.12 0-.267-.058-.315-.197zm-.19.073c.112.066.184.19.296.254.147.066.292.147.445.147.192-.157-.055-.263-.09-.418a2.705 2.705 0 0 0-.578-.367c-.088-.05-.071-.157-.057-.23.097-.041.17.132.258.024-.041-.172-.252-.263-.17-.492.057-.09.05-.228.137-.278.167.056.336.205.383.37.072.08-.047.313.105.294.08-.098.064-.22.113-.33.136.034.127.174.17.281-.098.288-.212.698-.033.99.042.018.114.059.153.009.138-.213.25-.484.2-.803.043-.041.117-.008.156.017.128.106.128.294.089.451-.049.04-.056.129-.033.196.098.048.22.081.26.197.014.14.03.334-.105.41a.524.524 0 0 0-.364.164c-.056.093-.04.157-.128.24-.129-.05-.242-.142-.395-.142-.2.009-.427.352-.564.026-.103-.19.16-.262.082-.445-.137-.08-.33-.097-.364-.302.008-.084-.03-.197.035-.263zm1.084-.326l.048-.081c.057.072.024.213-.015.293-.05-.024-.058-.14-.033-.212zm.776 1.41c-.043.04.007.13-.092.147-.087 0-.054-.19-.184-.107-.024.033.015.081-.04.107-.032.186.04.326.062.499.074.302.422.426.68.465.218.04.42-.097.58-.238.13-.195.243-.442.193-.697-.023-.147-.055-.362-.24-.442-.18.01.024.328-.195.238-.064-.049-.064-.182-.04-.271.04-.066.103-.072.177-.106.17.038.298.143.388.28.144.328.048.771-.138 1.048-.192.255-.492.337-.806.33-.346-.035-.637-.305-.756-.615-.042-.083-.016-.175-.033-.238-.098-.172.023-.303.08-.459.065-.073.186-.065.272-.048.043.016.098.048.092.107zm1.957-1.437l-.081.018c-.007-.099.057-.206.145-.238.06.099-.039.157-.064.22zm-.974-.162c.014-.033.023-.067.072-.058.039.09.144.14.144.247.019.065-.055.048-.087.032-.081-.049-.115-.113-.129-.221zm-.41.718c.058-.123.266-.116.22-.277-.17-.066-.177-.247-.188-.403a.42.42 0 0 1 .155-.254c.09.147.041.378.193.509.114.082.233.237.404.195.112-.188.025-.425-.064-.59-.13-.147-.38-.277-.275-.518.114.017.152.165.266.13.047-.146-.122-.244-.05-.416.082-.114.113-.354.3-.33.06.104.15.193.182.308.073.14-.015.304-.047.442l.055.05c.121-.032.13-.271.29-.19.218.28-.153.387-.249.584-.09.141-.17.32-.155.499.065.099.161 0 .244 0 .12-.09.233-.21.324-.318.007-.074.057-.156.072-.24.025-.023.056-.007.081-.016.08.108 0 .229-.006.337-.066.083-.145.163-.163.262.056.08.194.08.22.196-.01.115.022.238-.057.32-.145.042-.309-.082-.462-.017-.089.058-.25.047-.272.179-.073.048-.098.183-.201.116-.08-.107-.17-.223-.3-.255-.17-.04-.321.025-.483.032-.042-.097-.105-.228-.033-.335zm1.58.839c-.072.024-.114-.024-.105-.09-.007-.043.024-.121-.047-.116-.114-.033-.186.09-.235.163-.154.329-.12.763.12 1.01.22.13.495.212.741.14.242-.081.429-.27.462-.534.055-.068.023-.166.062-.238-.015-.14.059-.336-.135-.4-.08.065-.04.188-.17.204a.175.175 0 0 1-.105-.097c.056-.083.04-.175.128-.222a.524.524 0 0 1 .282.042c.22.164.204.392.163.606-.121.344-.316.705-.708.803-.428.098-.76-.082-.976-.394-.152-.195-.048-.515-.096-.737.04-.041.014-.148.072-.181-.015-.139.138-.246.25-.304.117-.09.36-.05.384.125.008.105-.008.179-.086.22zm2.328-.953a.261.261 0 0 1-.159.157h-.104c.03-.082.118-.14.193-.18.03-.01.046.016.07.023zm-1.418.216c.073-.048.242.008.21-.14-.031-.146-.137-.292-.08-.463.04-.082.072-.215.176-.196.032.146-.049.286-.014.451.095.129.103.376.329.36.202-.231.087-.607.056-.87-.064-.08-.032-.212.008-.294.031-.082.121-.097.184-.14.106.023.025.188.065.27.024.043.096.066.122.024.072-.13.034-.305.121-.418.114-.13.258-.172.412-.196l.071.085v.288c-.032.18-.315.246-.208.443.12.017.202-.22.289-.066-.04.345-.41.393-.646.565-.104.148-.273.256-.201.46.177.072.363-.033.524-.096.147-.108.201-.28.306-.419.072-.009.097.073.106.132-.008.26-.308.36-.444.498-.024.14.145.23.066.37-.01.065-.09.073-.146.081-.147-.032-.252-.17-.412-.146-.178.009-.316.115-.467.157-.08-.157-.225-.388-.452-.379-.073-.017-.081-.098-.088-.155-.009-.098.056-.147.113-.206zm.498-.6c.09.05.066.205.05.295l-.05.007a.337.337 0 0 1 0-.302zm1.396.999c.063.18-.193.297-.17.444.048.206-.242.254-.275.41-.04.18 0 .344.162.45l.066.008c.062.157-.08.213-.179.28-.226.057-.508.025-.677-.122-.145-.1-.192-.295-.137-.467.024-.066.103-.033.152-.008.008.058.075.025.096.066.122.024.242-.026.348-.09l.16-.198c-.102-.244.163-.318.26-.474.056-.155-.067-.435.13-.474.144-.085.064.126.064.175zm.121.878c-.018.05.03.1.063.148.016.172.024.37-.05.526-.184.12-.29.403-.556.384-.305.058-.658.05-.894-.164a.899.899 0 0 1-.25-.597c.033-.198.058-.378.188-.52-.011-.17.217-.194.338-.262.13.018.3.01.34.167.03.04.03.155 0 .187-.04.082-.131.098-.203.082-.016-.04-.057-.032-.042-.091.033-.04.081-.095.042-.161-.204-.092-.29.138-.418.262-.034.097-.083.203-.09.318-.041.139 0 .288.09.376.185.233.49.403.813.33.226-.05.46-.196.532-.418.063-.107.12-.247.08-.395-.049-.031-.04-.098-.113-.082-.048.042-.146.207-.208.058-.017-.04-.017-.105.013-.14.082-.161.212-.04.325-.008zm.009-.498c.09-.018.177.04.219-.06-.05-.18-.153-.353-.08-.55.03-.057.063-.13.127-.164l.058.016c0 .238-.033.542.12.73.033.026.074.041.114.041.177-.18.162-.478.13-.713-.056-.14-.13-.278-.008-.409.048-.017.08-.067.146-.049.088.04-.065.18.073.212.145-.032.122-.212.25-.254A.862.862 0 0 1 58.45 2c.035.13-.127.213-.184.302-.114.18-.227.278-.332.467-.135.23-.271.509-.41.698-.065.186-.227.393-.34.58-.153.026-.073-.202-.176-.278-.008-.164-.387-.27-.202-.45zm.476-.607c.054.016.045.088.071.139-.016.026-.008.09-.056.082-.015-.075-.041-.158-.015-.22zm1.28 1.523c-.023.114-.039.27-.03.42.03.039.112.039.129.113-.082.336.129.804-.3.925-.152-.024-.265-.17-.427-.195-.282.122-.588-.19-.877 0-.08.015-.218.041-.258-.066.103-.23.273-.435.233-.72.146-.241.372-.378.492-.634.122-.121.112-.288.241-.402.195-.27.324-.598.54-.909l.063.001c.073.131-.144.28.05.362.015.327-.066.624.137.843.015.09-.032.173.008.262zm.218-2.023c.156-.213.436-.37.708-.312-.014.091-.038.23-.16.278-.207.09-.418.247-.63.37-.054-.107.06-.23.082-.336zm.326-.698c.144-.031.32 0 .459 0l.012.025c.016.106-.152.123-.248.165-.152-.017-.297.082-.466.082-.033-.147.144-.205.243-.272zm.02-.386c.09-.122.267-.156.396-.122.09 0 .17.04.218.09.049-.008.072.009.104.05.027.016.01.063-.008.088-.235.1-.51.01-.724.033-.059-.024-.024-.105.014-.139zm.672-.459a.482.482 0 0 1 .514.23c-.008.083-.072.083-.137.107-.177-.015-.313-.122-.466-.19-.05-.091.024-.13.089-.147zm.59-.22c.214 0 .328.194.448.343-.014.033-.023.092-.08.092-.219.024-.378-.181-.467-.336-.024-.082.033-.098.098-.098zm.415 1.032c-.072.024-.142.082-.224.082-.042-.14-.048-.355.056-.444.098-.023.178.034.217.108a.29.29 0 0 1-.05.254zm1.147 1.394h-.083c-.015-.032-.023-.1.009-.114.058.014.098.057.074.114zm-.952-1.36c.126-.147-.068-.369.112-.476.234-.048.444-.132.684-.132l.1.058c.114.123-.098.377.137.41.218-.007.483-.049.627.131.016.106-.08.115-.097.197 0 .13.13.23.08.368-.065.034-.024.098-.104.106-.195-.016-.354-.154-.564-.106-.275.189-.37.516-.37.845.08.262.412.14.597.204-.008.024-.033.092-.079.092-.226-.008-.486.122-.655-.073-.137-.155-.065-.436-.065-.64.079-.33.267-.558.466-.795.017-.173-.12-.28-.105-.444-.113-.14-.322 0-.466.056-.04.05-.145.074-.105.174.137.074.308.09.411.163-.088.166-.256.337-.314.535a1.37 1.37 0 0 0-.129.802c.058.156.16.296.25.412-.025.08-.152.055-.22.032-.077-.05-.176-.05-.218-.156.09-.269-.102-.503-.056-.78.016-.156-.176-.295-.057-.45.073-.165-.072-.45.14-.534zM60.886.382a.504.504 0 0 1 .265.164c.016.065-.024.13-.08.14-.098.033-.145-.082-.185-.122-.01-.058-.05-.14 0-.182zM60.83 3.49l.03-.032.026.018c-.01.024-.04.008-.056.014zm1.336.395c.08.04.22.049.22.156-.058.066-.178 0-.193.097 0 .14.153.14.225.22.103.107.225.216.248.361-.176.042-.275-.238-.444-.201-.038.03-.022.103-.015.145.177.262.548.313.654.648-.01.041.03.073 0 .106-.218-.067-.322-.253-.516-.335-.09.122.04.244.097.335.16.147.477.27.508.549.064.032.025.115.047.165-.12.048-.199-.125-.297-.18-.041-.042-.098-.108-.161-.1-.121.163.08.264.153.395.338.147.2.62.298.942.113.844.057 1.809.445 2.542.152.317.394.647.62.966.08.153.243.28.258.483.224.649.29 1.361.918 1.772.219.114.524.09.743-.04.306-.18.395-.527.412-.88-.122-1.154-1.26-1.803-1.662-2.798-.218-.399-.3-1.014-.114-1.473.065-.068-.014-.156-.023-.23.009-.157-.024-.33.072-.444.055-.032.065.067.136.05.13-.122.01-.392.219-.41.04.05.056.124.137.107.087-.064.056-.18.113-.253.135-.092.283-.23.451-.174.129.289-.145.418-.29.583 0 .049.039.049.064.09h.107c.046.122-.082.172-.155.23-.066.016-.155.008-.176.099-.042.114.193.105.08.237-.072.182-.275.142-.411.182-.06-.019-.1-.033-.156-.019-.17.198-.104.536-.104.795.16.426.322.83.563 1.191.395.5.839.967 1.147 1.517.158.309.297.688.2 1.09-.105.433-.419.77-.856.86-.19.024-.443.017-.603-.08-.453-.14-.62-.592-.744-1.009-.024-.068-.12-.117-.185-.06-.143.28.067.56.082.855.097.36-.267.58-.137.975.104.163.047.403.223.5.115 0 .243.032.252.166.079.359.13.754-.09 1.055-.021.216-.162.404-.225.574-.176 0-.354-.016-.524.042-.024-.016-.054-.042-.024-.067 0-.016-.015-.023-.021-.031.021-.073-.035-.067-.05-.106-.202.106-.144-.197-.332-.215-.095-.024-.176.04-.266.025-.064-.048-.169-.08-.176-.173.338-.09.66 0 .967.108.072.017.13-.066.154-.12 0-.061-.009-.134-.057-.16-.015-.294.22-.517.066-.796-.371-.342-.75-.646-1.098-.999-.142-.477-.248-.976-.475-1.428-.047-.146-.12-.311-.137-.482-.03-.107-.088-.188-.096-.32-.122-.214-.082-.5-.218-.705-.162-.214-.388-.451-.573-.662-.095-.18-.232-.313-.29-.502-.065-.122-.243-.041-.265-.196-.043-.132-.034-.312-.171-.329-.042.052-.042.138-.128.115-.083-.188-.219-.352-.195-.588-.024-.05-.042-.107-.104-.114-.018.038-.057.072-.104.072-.04-.081-.098-.179-.072-.302.056-.115.21-.254.29-.083.112-.032.186-.147.218-.254.12-.082.136-.262.29-.221 0 .09.104.043.146.057.064-.049.064-.14.098-.213l.145-.335c.063-.066.192 0 .248-.107.017-.483.21-.901.187-1.393-.033-.05-.114-.09-.17-.058-.14.082-.034.312-.098.435-.048.156-.025.352-.146.476-.055-.016-.112-.064-.16-.05-.17.174-.047.484-.187.673-.073 0-.065-.114-.16-.098-.152.132-.113.368-.25.509-.106.048-.08-.132-.201-.081-.437.549-1.008.919-1.525 1.343-.193.124-.281.305-.274.55-.032.156-.05.262-.17.362-.128.041-.162-.1-.25-.166.033-.245-.378-.361-.112-.606.031-.097-.008-.239-.024-.345-.058-.034-.073-.114-.08-.17.024-.093.162-.018.146-.131-.06-.156-.09-.329-.009-.493-.017-.098-.073-.17-.08-.279.05-.073.129-.016.195.016.103.238.054.552.243.748.159.066.242-.114.353-.165.313-.427.79-.845 1.024-1.305.19-.393.256-.846.523-1.19.08-.058.176-.172.128-.295-.128-.088-.2.06-.305.082-.024-.243.096-.45.218-.638-.018-.049.024-.13-.047-.139-.042.009-.066.032-.114.032.032-.238.224-.434.42-.607.096-.157-.164-.106-.116-.221.157-.138.331-.263.542-.172.078.041.086.205.223.14.031-.092.067-.212.17-.23.122-.027.219.03.274.112.042.067-.031.19.073.22.146-.024.21-.196.378-.129zm.92 12.434c.016-.09.072-.22.161-.261.042.01.089-.014.097.043.016.098-.08.18-.161.23-.032.023-.072.007-.098-.012zm2.096.022c.049.023.049.086.032.154-.524.164-1.096.203-1.652.277-1.113.024-2.21-.074-3.297-.22-.177-.05-.387-.05-.548-.164.16-.057.346-.068.507-.122.112-.01.146.098.241.138.114.009.259.073.365-.016.481.106.966.096 1.474.165.032.088.145.104.227.088.087-.066.184-.157.305-.147.096.067.177.203.299.09.103-.067.2-.212.356-.138.048.056.114.115.192.107.317-.149.637.047.937-.133.184.033.363-.087.562-.079zm-3.257.96c-.29-.046-.637-.095-.822-.358l.08-.057c.443.034.887.13 1.208.393-.128.102-.313.018-.466.022zm-2.685-1.258c.024-.156.106-.296.259-.344.063-.01.078.035.12.065-.016.18-.259.22-.38.28zm.275.344c-.098-.042-.251-.025-.29-.123.104-.04.297-.139.352 0 0 .05.024.148-.062.123zm.498-.484c.033.106-.08.198-.177.254-.056 0-.098-.047-.064-.099.081-.057.121-.17.24-.155zm2.002-2.92a.26.26 0 0 1-.16.149c-.526.122-.47.786-.59 1.214.007.12.145.218.167.335-.167.532-.207 1.197-.692 1.531-.072.011-.161 0-.177-.072.025-.042.017-.099-.026-.124-.072-.114-.193.034-.258-.048a.297.297 0 0 0-.161-.288c-.121-.055-.266.059-.355-.055-.03-.075.009-.166.089-.142.274 0 .613.197.807-.048.047-.363.289-.73.095-1.107-.095-.265-.33-.525-.191-.869.015-.474.175-.885.191-1.36.067-.5.533-.721.703-1.163.024-.074.122-.059.16-.01.187.205.187.544.285.81.015.107.073.223.113.313.039.255.2.45.208.714l-.208.22zm-.301 3.241c.097-.279.356-.515.62-.624l.027.03c-.1.273-.372.503-.647.594zm1.147-.09c-.032.105-.16.197-.275.22.009-.124.016-.27.153-.31.066 0 .138.014.122.09zm-.195-.501c-.055.216-.232.445-.298.633-.04.034-.113.055-.168.034l-.034-.052c.234-.237.413-.483.477-.836.008-.065-.041-.148-.112-.148a1.42 1.42 0 0 0-1.05.903c-.071.072-.178.016-.256 0-.058-.123.103-.158.133-.264.066-.081.073-.188.132-.271.046-.41.337-.759.223-1.196-.055-.048-.096-.072-.135-.148.023-.287.12-.525.231-.77.114-.09.243-.072.365-.171.088-.081.097-.204.217-.22.074.08.05.193.09.285.04.369.317.706.55.911.218.254.482.376.708.621a.808.808 0 0 1-.135.5c-.315-.04-.743-.154-.938.189zm-3.473-3.477c.064-.384.209-.687.466-.958h.05c.048.384-.187.67-.405.95-.031.025-.088.08-.111.008zm-.356.525c-.121-.377-.338-.73-.226-1.146.064.023.105.096.144.145.122.311.203.64.196 1-.015.067-.082.033-.114 0zm.242-2.567c.063-.114-.009-.342.194-.302l.022.245c.009.304-.031.642-.183.904-.161-.214-.066-.584-.033-.847zm.297 3.02c.033.008.084-.018.09.04 0 .114-.041.214-.065.318-.153.23-.232.516-.493.633-.063-.156.042-.297.09-.435.127-.182.207-.403.378-.557zm-.564 2.648c.09-.182.34-.223.394-.452.163-.148.226-.394.342-.591.04-.121-.058-.197-.146-.214-.276 0-.451.18-.67.278-.032-.081-.023-.195.042-.262.368-.196.693-.517.83-.895.154-.287.186-.64.154-.991-.017-.06-.099-.1-.155-.052-.176.125-.283.23-.44.356h-.036a.71.71 0 0 1 .066-.388c.2-.137.345-.31.491-.5.226-.32.363-.738.32-1.196-.03-.05.026-.163-.054-.18-.273-.043-.388.256-.55.4-.096.102-.105.24-.218.323-.08-.255.176-.337.226-.552.282-.491.168-1.145-.082-1.614a.171.171 0 0 0-.202.089c-.048.18-.191.353-.217.502l-.032.048c.04.08-.103.14-.05.254-.097.352-.048.76.137 1.058-.016.073.042.188-.048.229-.122-.025-.088-.163-.163-.23l-.256-.327c-.195.09-.113.377-.186.557-.065.655.171 1.214.517 1.69a.823.823 0 0 1-.098.482h-.055c-.113-.18-.139-.442-.284-.597-.073-.041-.127.048-.147.116-.13.4-.242.875-.13 1.319.065.287.446.662.09.942a.542.542 0 0 0-.176.315c-.026.024-.057.072-.098.039.058-.148.178-.279.193-.418.098-.14.056-.361.05-.524-.154-.206-.307.074-.445.114-.16.14-.315.385-.411.608-.043-.14.054-.312-.057-.395-.219.083-.419.223-.628.337-.153.114-.291.272-.436.42-.048-.074-.066-.166-.16-.191-.484.117-.992.51-1.185.911-.243.097-.354-.173-.573-.188a1.466 1.466 0 0 0-.387 0c-.08-.058-.024-.173-.065-.27.17-.041.354-.041.515-.09l.081.024c.42-.108.853-.157 1.251-.329.314-.067.628-.221.887-.392.298-.166.565-.412.79-.65.363-.513.678-1.139.678-1.877.04-.796.049-1.639.08-2.458.155-.23.586-.27.613-.558.087-.072.008-.148.106-.22.031-.212.072-.469.282-.533.056-.067.171-.116.243-.165.168-.131.288-.206.434-.353.078-.033.093.065.117.08l.146.615c.065.06.145.044.218.07.048.154.233.269.22.426.054.047.029.146.133.137.146-.09.187.1.243.149.01.106.034.237.139.27.161-.132.176.113.248.172-.008.245-.234.376-.298.597-.106.181-.234.319-.347.5-.26.515-.322 1.147-.37 1.77-.024.24-.104.42-.009.643.032.335.412.548.28.936-.048.121-.022.315-.19.342-.283-.066-.623-.147-.854.072-.14.139-.291.32-.356.509-.097.017-.225.025-.292-.047zm-.226-.543c.17-.115.324-.263.526-.311.014.228-.212.362-.339.516-.163.08-.29.288-.486.295-.056-.114.097-.196.13-.28.082-.047.122-.138.17-.22zm-.056-.73a.102.102 0 0 1-.08.033c-.163-.263-.185-.663-.066-.95.1.016.106.155.146.236-.031.255.066.435 0 .68zm-1.032 1.33c-.04-.256.171-.445.29-.657.05-.008.074-.074.138-.05.023.305-.22.532-.428.707zm-.33.025c0-.042.008-.08.041-.115.047.015 0 .073 0 .105-.009.01-.025.01-.041.01zm-.781.326c-.026-.132.096-.263.191-.362.129-.08.204-.344.396-.243-.04.203-.226.367-.353.516-.081.024-.137.13-.234.089zm-1.162.386c-.008-.156.136-.212.234-.329.13-.03.178-.188.316-.195l.021.033c-.064.236-.33.45-.571.49zm3.75-.33c-.165.052-.323-.031-.501-.023-.525-.041-1.063.097-1.558.246-.2.024-.41.131-.612.17-.095.082-.242.05-.346.107-.307.164-.694.188-1.025.305a.865.865 0 0 1-.32-.108c.08-.066.209-.066.33-.08.557-.157 1.08-.321 1.62-.501.411-.042.782-.246 1.21-.263.352-.072.79-.072 1.144.002.018.048.162.08.057.146zm-.49.609c-.358-.025-.784-.06-1.049-.326.21-.165.54-.036.79.013.128.098.313.058.434.195.039.125-.115.092-.175.118zm-1.535.393c-.331.032-.74.008-1.048-.147l-.08-.083c.29-.213.66-.098.984-.024.071.04.176.107.25.165.023.056-.066.056-.106.09zm-1.927.268c-.225.052-.411-.122-.628-.135l-.428-.126a.136.136 0 0 1-.032-.089c.105-.166.306-.048.46-.048.2.07.458.097.685.16.106.076-.048.158-.057.238zm-1.556-.342c-.024-.057-.08-.057-.088-.123.041-.173.217-.221.338-.336.143-.066.395-.091.516.022-.023.131-.203.109-.298.16-.202.055-.202.58-.468.277zm-.193-.437c-.193.043-.266-.177-.356-.276.032-.081-.055-.155.024-.22.147-.116.437-.156.557.03.049.215-.097.364-.225.466zm-.485.518c-.111-.034-.097-.18-.176-.255-.114-.13-.322-.145-.444-.263.122-.121.322-.072.483-.048.122.082.274.166.356.28.09.188-.138.205-.219.286zm-.393.018c-.347.04-.653.245-.993.22-.015-.066-.078-.113-.07-.192.321-.095.66-.176.99-.243.065.016.113.06.137.108.031.067-.04.08-.064.107zm-2.743-.837c-.207-.017-.371-.13-.588-.137-.217-.084-.435-.075-.669-.142-.29.018-.621.067-.878.042.023-.057.041-.14.122-.148.605-.082 1.097-.008 1.658.115.105.04.236.058.33.132.752.169 1.404.481 2.161.62-.055.099-.201.099-.323.099-.65-.09-1.223-.362-1.813-.581zm.847.673a2.9 2.9 0 0 1-.974.105c-.025-.016-.074-.016-.08-.057.015-.082.096-.099.136-.14.243-.098.542-.162.783-.12.096 0 .176.046.247.095.008.074-.078.068-.112.117zm-2.154-.314c-.16.01-.346.025-.499-.015-.072-.1.072-.083.106-.146.33-.1.7-.304 1.056-.173l.025.04c-.18.205-.443.22-.688.294zm-1.038-4.681c-.017.017-.042 0-.066.008-.267-.246-.37-.547-.451-.908.032-.016-.007-.082.048-.09.274.253.429.613.47.99zm.288.543c-.096-.1-.017-.24-.024-.363.065-.286.136-.58.28-.818.141.027.075.26.06.376-.05.215-.12.418-.163.633-.04.048-.062.164-.153.172zm-.175-1.765c-.163-.145-.186-.392-.203-.614-.007-.197.008-.402.065-.547.218.187.151.566.194.883.041.101 0 .207-.056.278zm.208 3.151c-.033.05-.09 0-.129 0a2.226 2.226 0 0 1-.437-.747c0-.072-.032-.154.017-.22l.106.033c.193.303.393.558.443.934zm.459-.502c.098.025.082.167.098.263.008.247.017.517-.136.682-.064.016-.05-.057-.064-.098a1.37 1.37 0 0 1 .102-.847zm-.014 1.878c.072.05.153.132.153.22.008.049-.065.084-.106.049-.231-.17-.472-.36-.652-.58-.064-.058-.047-.148-.08-.222.032-.014.073-.007.102 0 .113.08.283.164.364.278l.033.003c.065.097.138.144.186.252zm.49.281c-.007.024-.039.01-.054.015-.04-.035-.033-.09-.033-.14.007.042.114.05.088.125zm.47.071c-.025.035-.091.035-.106 0a.956.956 0 0 1-.344-.663c.028-.024.07.008.095.025.152.178.288.41.355.638zm.32.092c-.049.016-.072-.024-.086-.057l.006-.126c.05.054.129.091.08.183zm.71.303c-.25-.056-.387-.312-.525-.525v-.123c.211.033.275.246.428.385-.04.122.228.148.097.263zm-2.96-.86c-.251-.262-.68-.123-1.002-.123-.089-.106-.057-.263-.097-.384-.08-.328.181-.482.226-.772.161-.162.081-.458.065-.673a10.939 10.939 0 0 0-.275-1.635c-.153-.33-.45-.617-.58-.953-.072-.124-.243-.254-.171-.443.057-.04.113-.164.203-.097.135-.027.128-.18.177-.27a.23.23 0 0 1 .121-.157c.105.009.233.009.25-.116.047-.171.17-.352.297-.475.073.031.153 0 .187-.059.04-.203.097-.403.136-.613.173-.126.27.106.392.187.25.243.685.31.661.776.107.214.09.461.356.582.127.1.363.114.354.318.047 1.2-.08 2.412.291 3.487.258.54.547 1.041 1.097 1.35.2.166.433.287.66.42-.063.016-.152.042-.16.124-.008.032.015.065-.008.08-.097 0-.122-.09-.16-.149-.227-.303-.584-.492-.923-.63-.073.105 0 .262-.007.36-.086.01-.073-.105-.129-.161-.097-.282-.38-.494-.661-.6-.105.082-.08.279-.066.417 0 .139.099.247.085.385-.116-.08-.14-.254-.26-.342-.097-.256.17-.45.21-.682.128-.51.03-1.064-.187-1.498l-.087.007c-.13.182-.171.41-.283.58-.115-.04-.08-.186-.129-.277-.083-.162.087-.262.129-.375.396-.5.458-1.32.29-1.994-.025-.024-.03-.065-.08-.065-.187.1-.233.287-.316.476a.245.245 0 0 1-.114.057c-.088-.156 0-.305.056-.433.149-.29.114-.799-.014-1.059-.072-.23-.122-.534-.355-.681-.154-.018-.147.172-.202.263-.13.395-.208.868-.025 1.256.089.238.265.376.306.62-.024.042-.079.02-.088-.023-.138-.28-.323-.56-.623-.69-.08-.024-.128.057-.153.116a1.99 1.99 0 0 0 .145.957c.169.363.461.615.717.935-.04.116.113.206-.007.298-.178-.15-.323-.33-.55-.396-.096.133-.055.357-.031.51.09.484.275.974.659 1.254.113.149.469.198.332.468-.192-.147-.403-.188-.622-.279-.064-.016-.103.04-.151.066-.05.297.193.517.307.753.097.182.296.255.394.42-.033.082-.12.06-.177.098-.217-.088-.26-.368-.41-.516zm.171.688a.729.729 0 0 1-.364-.22c.018-.04 0-.109.064-.117.154.023.269.165.3.304v.033zm-.323.336c-.057-.041-.008-.125.023-.173.098.026.243-.024.3.09-.064.107-.219.072-.323.083zm-.248-.698c-.124.025-.237-.047-.332.025-.184.023-.048.445-.298.265-.234-.018-.05.336-.322.245-.178-.221-.41-.402-.452-.697a3.821 3.821 0 0 1-.211-.893c.331-.33.016-.813-.063-1.19-.04-.195-.234-.288-.411-.335-.098-.206-.438-.32-.242-.583-.01-.106.047-.157.089-.238.16-.377.194-.795.32-1.171.106-.05.065-.305.244-.223.071.106.129.196.168.318.308.38.662.755.596 1.355.06.096.019.236.081.344.04.295.097.571.122.875-.144.354-.42.714-.258 1.132.08.23-.01.583.29.657.25.025.491-.115.734-.05 0 .05.017.138-.055.164zm-.203.232c.114 0 .176.08.25.163v.083c-.097.047-.136-.093-.21-.108-.025-.04-.072-.08-.04-.138zm-.783.712c-.67.06-1.28.172-1.984.139-.046.056-.121-.018-.16.009-.783-.026-1.597-.1-2.33-.304.024-.016-.057-.056-.017-.089.104-.084.25.008.378.008.308-.018.581.19.896.073.184-.017.435.196.555-.058.227-.016.389.44.582.09.225-.057.346.304.524.116.177-.14.452-.068.652-.091.25-.073.565.015.798-.13.218.065.478.065.597-.116.211.001.349.14.55.116-.3.17-.694.18-1.041.237zm-.71.598c-.248.122-.57.08-.83.105-.032 0-.039-.04-.032-.066.082-.057.163-.121.249-.14l.023-.042c.26-.095.534-.136.81-.177l.135.023c.008.165-.225.215-.354.297zm-1.62-.902c-.097 0-.162-.072-.217-.147l.025-.108c.136-.016.129.084.2.166.025.016-.016.064-.008.089zm.54.034c-.104.014-.194-.116-.266-.181-.008-.041-.024-.13.056-.14.106.024.17.066.21.172-.006.042.05.09 0 .149zm.88-.196c0 .023.007.056-.025.072-.25-.106-.41-.28-.58-.503v-.107c.298.053.427.33.604.538zm.476-.066c.023.067-.056.081-.09.099-.267.065-.21-.247-.33-.369-.234-.288-.533-.559-.936-.559-.113.164 0 .344.08.485.024.14.137.228.194.352a.437.437 0 0 1 .16.14c-.056.072-.12.072-.2.032-.073-.139-.112-.197-.17-.36-.12-.2-.232-.502-.524-.544-.208-.04-.403.043-.597.033-.021-.157-.128-.303-.088-.474.443-.45 1.162-.823 1.241-1.5.049-.1.042-.237.13-.305.186.1.25.37.516.353.17.228.227.533.258.836-.08.115-.2.17-.168.346.16.483.16 1.03.524 1.435zm3.337-5.954c-.08.066-.162-.01-.242-.033a.232.232 0 0 1-.033-.155c.033-.082.113-.033.155 0 .048.059.111.099.12.188zm-2.734-7.24c.178.103.365.24.323.485-.04.049-.007.154-.104.1-.184-.133-.451-.28-.338-.578.031-.04.087-.04.12-.006zm.316-.416c.049.107.042.23.042.362-.131-.019-.243-.114-.33-.215-.058-.098-.041-.195 0-.294.094-.083.264.024.288.147zm.057-.5c.03.065.04.155.03.221-.007.033-.089.033-.113 0-.153-.099-.29-.263-.227-.45.034-.044.106-.027.148-.018.064.075.09.181.162.248zm.354-.427c-.147-.065-.324.091-.39-.109-.007-.096-.047-.253.036-.31a.554.554 0 0 1 .417.296c.017.041.017.14-.063.123zm-.155.403c-.04-.026-.013-.081-.024-.123a.187.187 0 0 1 .129-.074c.171.008.25.147.347.254-.008.096.057.18.033.27-.21 0-.356-.156-.485-.327zm.486 1.148c-.195-.124-.404-.24-.46-.485-.008-.083-.048-.215.031-.271.178.09.413.238.413.467.031.09.042.19.016.289zm-.518.014l.048-.08c.26.066.284.351.388.565-.008.081.018.197-.024.269-.08 0-.072-.106-.13-.14-.137-.163-.363-.326-.282-.614zm.196.976c.04.141.081.385-.032.478-.074-.007-.104-.075-.131-.14.05-.295-.216-.426-.12-.72.218-.011.177.268.283.382zm.54 2.64c-.01.058-.025.166-.113.124-.195-.262-.12-.637-.356-.869-.023-.042-.008-.099-.017-.147.027-.01.04-.043.073-.025.21.27.413.524.413.918zm-.526-1.475c-.038-.09.058-.13.09-.18.211.081.283.302.436.457.04.164.105.37.033.517-.195-.237-.445-.5-.56-.794zm.784.065c0 .057.013.132-.042.156-.096-.032-.111-.146-.16-.214-.083-.268-.557-.392-.346-.728.313.121.506.442.548.786zm-.292-1.416a.677.677 0 0 1 .292.245c.087.145.175.385.095.557-.154-.145-.29-.253-.435-.41.016-.115-.04-.287.048-.392zm.09-.707c.039-.034.08 0 .112.024.283.189.348.416.356.763-.128.032-.17-.163-.284-.198-.12-.072-.25-.161-.322-.286.024-.115.187-.138.137-.303zm.573.107c-.074-.008-.074-.115-.154-.156-.13-.206-.436-.206-.493-.451.066-.067.146-.133.13-.247.243.017.404.263.517.45-.018.141.16.321 0 .404zm.587 3.9c-.048.141-.249.123-.307.28-.079.124.033.387-.16.403-.225-.297-.629-.503-.501-.927.025-.074-.023-.214.105-.22.114.04.285 0 .339.13.024.122.138.188.25.253.096.04.232-.049.274.08zm1.478-1.45a.272.272 0 0 1 .215.18c-.008.067.025.099.016.166a.448.448 0 0 1-.23.031c-.06-.098-.173-.058-.26-.017-.25-.041-.54-.098-.757.043-.104.025-.186-.231-.243-.026-.032.124.072.214 0 .32-.065.009-.147.009-.175.082-.018.117-.043.271-.163.337-.098-.008-.121-.097-.17-.163-.096-.197.291-.502-.072-.478l-.225.239c-.098-.008-.211-.008-.274-.09-.034-.115.042-.196.063-.277.042-.027.098-.027.113-.084.026-.097-.113-.238.043-.278.217.058.289.35.546.312.194-.353.572-.196.904-.32.216.138.45-.09.67.024zm6.265-.49c-.412.05-.849-.114-1.066-.468-.047-.09 0-.235-.103-.287-.097-.023-.065.11-.122.132-.291.318-.806.353-1.21.204-.2-.05-.29-.246-.402-.386-.136-.066-.136.107-.227.157-.186.082-.313.288-.54.302-.314.1-.774-.008-.967-.27-.121 0-.114.141-.16.205-.187.295-.51.377-.816.442-.233.033-.385-.13-.605-.147-.056-.008-.064-.073-.08-.106l.034-.031c.369.189.878.253 1.2-.059.177-.098.209-.303.332-.443.153.11.306.173.46.255.417.141.87-.007 1.143-.328.042-.082.098-.18.192-.203.073.054.073.16.144.219.275.294.743.442 1.13.287a1.51 1.51 0 0 0 .394-.24c.033-.033.058-.115.122-.138.105.23.211.516.468.673.339.196.822.18 1.143-.04-.031.22-.297.22-.464.27zm1.594 1.785c.098-.048.17-.277.322-.179l.024.082c0 .09-.063.131-.136.154-.072.025-.185.033-.21-.057zm.373 2.895c.102-.009.095.073.087.155-.049.068-.137.1-.227.1l-.056-.018a.412.412 0 0 1 .196-.237zm-.509-.204c-.027-.138.12-.18.153-.294.073.008.177-.026.177.079 0 .073-.057.164-.137.215-.064-.017-.137.081-.193 0zm.193-.78a.332.332 0 0 1-.29.107c-.058-.008-.032-.067-.042-.1.073-.105.413-.303.332-.007zm-.138-.826h-.04c-.065-.133.079-.19.112-.288.05-.04.147-.033.17.033-.007.147-.153.189-.242.255zm-.306-1.651c.033-.081.074-.13.162-.139.129-.015.089.166.082.255-.01.082-.02.173-.082.222-.176-.009-.113-.222-.162-.338zm-.419-.086c.04-.06.096-.02.169-.026.017.122.024.303-.048.418-.073.017-.12-.058-.145-.106-.018-.09-.034-.213.024-.286zm-.468.25c-.016-.105 0-.203.065-.277.047 0 .114-.017.135.041.01.14-.047.27-.087.377-.113.033-.064-.098-.113-.14zm-6.311-.99c-.04-.082-.177-.132-.114-.24.207.059.426.059.637.091-.137.124-.34.149-.523.149zm.564.294c-.114.015-.138-.074-.177-.14.024-.058.064-.08.104-.115.072-.016.151 0 .16.074.018.082-.032.14-.087.181zm-.431-.083c.124-.023.058.125.058.173-.017.008-.031.015-.058.008-.023-.056-.064-.122 0-.18zm4.927.503c-.258.097-.61.04-.909.04-1.008-.014-1.926.05-2.958-.006l-.041-.025c.371-.162.82-.157 1.233-.232.904-.017 1.814.04 2.675.223zm-2.353-.937c-.007.082-.064.14-.122.181-.072 0-.162 0-.178-.072-.04-.099.027-.166.106-.205.09-.018.169.015.194.096zm.468.109c-.04.047-.122.032-.177.032-.073-.032-.097-.131-.048-.198.087-.13.37 0 .225.166zm.567-.067c0 .074-.027.114-.082.147-.104.034-.211.009-.25-.09-.04-.1.05-.156.112-.179.105-.026.185.04.22.122zm.463.032c-.006.09-.055.149-.153.149-.055-.008-.153-.008-.143-.1-.01-.081.047-.13.112-.163.08-.007.172.04.184.114zm.495.035c.024.089 0 .18-.097.195-.09 0-.179-.025-.203-.116-.007-.066.05-.106.08-.139.073.01.187-.031.22.06zm.524.106c.024.082-.034.121-.083.164-.064 0-.135 0-.184-.05-.04-.057-.023-.105.017-.165.081-.082.2-.042.25.05zm.441.137c.018.082-.012.166-.1.166-.076.016-.097-.058-.147-.107 0-.074.042-.107.089-.14.086-.034.119.04.158.081zm.372.172c-.024.05 0 .098-.056.13-.057.02-.09-.02-.13-.048-.007-.066 0-.114.065-.13.049.002.105.002.12.048zm-.84-.54c-.629-.09-1.226-.311-1.928-.262-.304-.058-.643.066-.926-.008.218-.073.484-.23.692-.392.108.023.108.121.198.162.376.296.981.289 1.37.041.207-.253.256.166.393.215.316.302.848.4 1.258.22.04-.017.057.007.073.04-.043.1-.043.222-.148.27-.354-.032-.628-.252-.982-.287zm-3.773.484c.466-.139.982-.116 1.45-.148 1.082-.023 2.1.173 3.09.501.066.008.105.056.13.115-.05.066-.155.016-.22 0a9.597 9.597 0 0 0-4.233-.354c-.11.072-.272.009-.394.058-.372.057-.694.256-1.074.28-.022-.017-.048-.032-.04-.065.373-.263.864-.248 1.291-.387zm-.418-.082c-.097 0-.177-.097-.13-.197.082-.048.267-.123.29.026.05.13-.086.146-.16.17zm.66-.264c0 .059-.031.107-.086.14-.088.017-.161-.024-.188-.098.017-.082.06-.122.14-.137.055.015.162-.002.135.095zm.517-.073c.025.106-.071.106-.136.147-.048-.024-.113.017-.145-.042-.073-.099.017-.196.097-.237.095-.015.15.058.184.132zm-1.282-.057h-.033c.016-.098.146-.09.203-.164.169-.055.185-.366.393-.278.147.132.338.132.525.172.05.01.113-.008.16.018-.427.048-.845.164-1.248.252zm-1.177.969c.042-.116.21-.05.21.041-.016.106.023.23-.049.304-.153-.026-.097-.239-.16-.345zm-.434.009c-.017-.067.031-.067.055-.108.063.026.203.026.162.14.008.115.008.253-.088.304-.103-.041-.121-.207-.13-.336zm-.429-.108c.097 0 .17.041.202.13 0 .124-.024.272-.136.337l-.066-.033c0-.146-.104-.319 0-.434zM48.64 9.4c.015-.04.098-.108.136-.033.064.075.095.15.153.216l-.007.072c-.09.041-.186 0-.251-.058-.049-.042-.058-.13-.031-.197zm.087-2.378c-.114-.007-.225-.041-.275-.131-.024-.064.033-.12.082-.146.145-.042.152.164.25.18.032.048-.024.074-.057.097zm.34 1.904c-.024.08-.154.04-.225.031-.074-.04-.13-.115-.09-.213.119-.05.266.058.314.182zm-.397-1.068c.008-.059-.025-.115.048-.14.137.01.164.158.226.248.008.032-.015.058-.023.073-.124-.024-.17-.106-.25-.18zm2.549 8.633l-.026.081c-.223-.09-.498-.275-.538-.497.014-.069.096.015.136.023l.371.303c.024.025.024.059.057.09zm-.605-.77c.645.198 1.257.346 1.952.403.055.058-.01.099.024.173-.008.16-.211.066-.323.089a1.064 1.064 0 0 0-.547.22c-.065.008-.137-.01-.16-.079-.154-.37-.598-.586-.946-.805zm6.956-5.442l.08.08c.015.92-.023 1.816-.058 2.731-.057.345-.21.625-.315.951-.313.5-.757.984-1.352 1.172-.29.23-.711.172-1.041.329-.55.042-1.155.157-1.758.146-.75-.01-1.46-.131-2.16-.303-.929-.246-1.637-.992-1.96-1.871-.25-.909-.08-1.998-.177-2.975-.114-.22.192-.263.112-.442l-.112-.155c.08-.157.346-.026.396-.221.014-.206-.298-.279-.25-.502.112-.09.33.039.364-.155-.01-.314-.323-.41-.397-.68v-.05c.067-.008.172.05.22-.05.098-.344-.13-.557-.267-.812.015-.09-.025-.17.033-.245.073-.042.17-.075.2-.166a.187.187 0 0 1 .072-.196c.163-.082.163.263.349.106.096-.006.153-.27.265-.09.016.049.032.114.09.139.176.017.2-.196.353-.244 1.027.051 2.025-.006 3.043.051.136-.042.297.016.44 0 .413-.016.808-.042 1.211-.016.218-.026.41 0 .63-.026l.666.02c.138.073.195.316.394.245.074-.066.049-.164.155-.189.097.065.176.196.314.196.097-.05.08-.221.233-.14.073.115.018.329.22.329.081.065.072.212.054.319-.223.197-.338.517-.216.82h.177c-.033.254-.346.383-.412.623 0 .09 0 .188.096.214l.3.039c0 .256-.38.298-.26.551.099.09.22.116.348.116.024.032.01.081 0 .13-.072.058-.13.137-.08.22zm1.26-4.536c.161.114-.137.352.136.37.033.098.073.195.059.31-.114.017-.227.131-.332.041a.461.461 0 0 0-.207-.245c-.058-.008-.125.008-.125.065 0 .123.074.222.09.344a.27.27 0 0 1-.162.262c-.12-.025-.12-.204-.175-.287.007-.057-.016-.097-.066-.115-.29.009.073-.435-.225-.41-.033.064-.105.123-.184.082-.073-.117-.225-.033-.314-.106-.153.058-.324.039-.485.058 0-.026-.025-.045-.038-.058-.107.058-.204.116-.34.073-.13-.084 0-.197.024-.278.153-.196.45-.13.645-.056l.248-.066c.098 0 .186.016.258.074.274-.082.46.122.652.27.25 0 .33-.263.541-.328zm.556-2.917c-.2.172-.434.262-.588.502h-.048c-.007-.092-.05-.23.03-.305.018-.288.291-.476.516-.557.034.073.018.18.106.213.041.041.008.105-.016.147zM59.08 3.86c-.063.056-.122.172-.217.138.006-.327.073-.59.386-.753 0-.051.056-.026.079-.033.033.09.05.188.14.245-.008.239-.26.271-.388.403zm-.08.861c-.018-.345.113-.674.443-.788-.017.18.12.443-.122.533-.145.052-.178.23-.322.255zm.113 2.083c-.024.188.094.384-.008.555-.194.165-.307.485-.55.542-.071-.181-.03-.445-.241-.542-.055-.033-.13-.033-.161-.105-.009-.05.015-.066.047-.093.397.107.404-.39.736-.409.046.033.135-.023.177.052zm.605-2.2a.336.336 0 0 1-.08.337c-.225.123-.307.36-.451.548-.106-.016-.04-.165-.059-.245.025-.328.276-.483.477-.688.039.007.12-.026.113.048zm-.04-1.86c.064-.18.233-.263.37-.368.09.031.03.163.048.245-.048.22-.259.386-.418.509-.13-.091-.01-.255 0-.386zm.467-.885l-.016.122c-.104.163-.292.31-.47.342-.057-.113.042-.252.08-.367.106-.08.275-.262.406-.097zm.007 1.877l.072.007c.105.33-.24.435-.154.755-.023.058-.085.106-.144.075-.057-.297.025-.657.226-.837zm-.436.17c-.04-.114-.008-.237.018-.35-.01-.025.047-.09.056-.122.047-.131.104-.304.274-.362.12-.026.065.132.104.196-.072.271-.267.46-.452.639zm.138 2.1a.832.832 0 0 0-.169.353c-.048.19-.065.425-.224.531-.058.018-.058-.039-.074-.064-.073-.434.234-.739.434-1 .048.043.057.124.033.18zm-.493.066c-.128-.059-.04-.246-.031-.351.031-.246.274-.394.404-.584.103-.122.225.075.16.188-.121.264-.331.485-.533.747zm.903-4.492c-.11-.033-.305.04-.37-.066.058-.189.236-.287.396-.361.081 0 .072.074.106.132-.073.082.013.262-.132.295zm.235.597c-.072.01-.122.116-.21.066-.032-.202.098-.36.217-.474.056-.016.13.016.13.082a.393.393 0 0 1-.137.326zm.24.729c.098.033.065.207.056.306-.095.13-.233.204-.355.327-.096.026-.055-.04-.096-.099-.016-.269.194-.417.395-.534zm-.2-.132c-.073.018-.104.116-.202.107-.04-.146.015-.32.08-.45.06-.04.202-.171.25-.024.034.14.008.294-.129.367zM49.934 3.96c-.024.042-.072.14-.145.066l-.074-.148c-.12.042-.096.221-.064.32.088.329.412.565.725.632.282.04.45-.182.62-.356.105-.203.008-.44-.047-.646-.08-.105-.178-.295-.331-.255-.08.093.096.214-.089.207-.064-.033-.055-.1-.055-.164.04-.072.072-.163.2-.196.357.057.472.407.543.744 0 .107.008.222-.05.294-.07.28-.338.371-.548.486-.477.073-.854-.214-1.08-.592-.04-.106-.08-.22-.064-.336.032-.116.137-.179.233-.22.082 0 .162.032.194.09.023.015 0 .057.032.074zm.189-.1c-.018-.174-.292-.246-.17-.442.11.115.305.166.305.352.025.148.162.246.322.27.073-.025.137-.107.236-.073.055.13.014.286-.057.392a.584.584 0 0 1-.356.19c-.179.033-.354-.092-.45-.23.16-.082.183-.28.17-.458zM41.79 14.832l.089-.396c.128-.072.322-.047.378-.22.098-.312.155-.674 0-.977-.225-.284.074-.564.058-.868.009-.1.081-.24-.016-.328-.032-.066-.122-.066-.171-.034-.17.255-.184.624-.41.838-.259.27-.694.392-1.074.305-.361-.04-.606-.403-.717-.69-.33-1.204.67-1.894 1.274-2.704.379-.551.732-1.172.588-1.952-.122-.237-.354.018-.531-.156-.042-.057-.114-.09-.136-.172.007-.083.12-.105.094-.206-.137-.081-.345-.106-.321-.319.065 0 .144.017.184-.04-.03-.196-.322-.188-.306-.4-.008-.083-.063-.28.098-.231.16.042.29.09.377.22.031.091.065.173.146.222a.116.116 0 0 0 .072-.09c.103-.067.136.041.17.114.03.074-.025.19.047.254.064.041.105-.074.17-.025.09.156.071.361.017.524-.041.147.055.248.087.37.16.779-.29 1.378-.594 1.952-.234.26-.429.482-.614.778-.394.434-.79 1.066-.605 1.745.064.207.203.435.428.525.24.148.588.074.805-.072.276-.246.386-.615.547-.92.099-.383.235-.778.414-1.12.395-.618.854-1.017.99-1.748.17-.506.097-1.138.195-1.68l.078-.91c.084-.244.437-.346.46-.623-.04-.073-.096-.058-.152-.026-.122.082-.177.278-.364.256-.03-.526.68-.51.711-1-.169-.066-.281.172-.435.22-.033.008-.081.05-.136.032.025-.178.152-.301.274-.416.169-.058.338-.164.41-.336-.01-.043.018-.091-.033-.115-.153.056-.249.165-.41.224-.049-.143.129-.267.202-.356.089-.097.217-.097.25-.228.013-.164-.309-.009-.171-.188.096-.082.234-.082.354-.082.097.007.123.22.243.13.033-.117.009-.256.146-.306.08-.008.152-.022.22.009.074.065.048.164.16.236.073-.033.105-.092.137-.166a.504.504 0 0 1 .58.19c.017.139-.135.007-.16.123l.042.081c.192.165.355.353.419.584-.049.056-.185-.074-.17.073-.017.099.072.158.111.23.05.148.132.287.115.467-.12 0-.153-.123-.283-.131-.03.05-.072.106-.056.172.484.436.427 1.191.854 1.641.332.418.655.902 1.073 1.221.073.05.152-.031.184-.08.147-.205.068-.541.227-.723.047.016.137-.033.13.047.007.166-.13.29-.017.43.04.155-.2.326.016.417.058 0 .106.056.065.114-.087.08-.12.221-.12.36 0 .132.134.214.087.353-.201.126-.138.519-.444.503-.175-.182-.127-.486-.217-.716-.243-.27-.54-.41-.791-.67-.202-.066-.274-.313-.477-.386-.152-.155-.29-.385-.49-.508-.122-.032-.098.163-.21.057-.105-.14-.105-.352-.226-.483-.105-.043-.17.236-.219.016-.056-.198.025-.459-.152-.597l-.156.041c-.096-.279-.135-.584-.2-.878-.032-.016-.066-.033-.114-.024-.121.162-.057.424-.008.606.008.263.114.509.09.78.063.031.016.113.097.145.322-.007.249.394.412.584.113.09.168-.189.275-.027.114.152.215.306.338.453.089-.017.16-.123.249-.057.097.081.113.23.073.336-.04.04-.04.114-.105.082-.024-.017-.047-.057-.089-.041-.096.115-.055.277-.111.417-.065.082-.082.23-.203.263l-.118-.106c-.13.123-.116.417-.333.468-.273.58-1.041 1.072-1.088 1.785-.137.754-.533 1.33-.677 2.075-.05.218-.186.392-.333.558-.306.264-.666.54-.935.842-.064.3.242.518.073.772-.006.082-.006.181.088.206.211-.049.413-.093.623-.142.128.018.313-.032.412.082-.131.265-.39-.024-.542.165-.056.074-.129.263-.266.17-.024.069.018.174-.082.19-.169-.09-.377-.032-.553-.058-.034-.032-.034-.098-.082-.14-.105-.376-.403-.727-.283-1.186zM44.67 2.66c.042-.013.065.033.065.06 0 .024 0 .072-.041.054h-.04c-.024-.031 0-.073.016-.113zm-.287.364c.2-.026.508.042.587-.222-.008-.32-.08-.63-.322-.835-.218-.099-.378.074-.581.116-.09-.04-.113-.125-.138-.222 0-.114.179-.206.08-.345-.064-.017-.08-.106-.056-.166.073-.065.202-.065.306-.09.136-.016.32.101.435-.057-.007-.057.018-.115-.024-.157.033-.08.017-.195.113-.23.257.009.462.06.685.14.05.025.066.098.056.164-.137.297.3.378.163.673.024.132.095.328-.008.442-.105.164.017.444-.105.59-.023.198.024.42-.168.51-.064.04-.149.024-.22.024l-.04-.058a.9.9 0 0 0 .267-.822c-.058-.345-.226-.63-.435-.883.048-.155.233-.132.38-.155.023-.034.048-.082.023-.125-.144-.122-.29-.237-.49-.22-.105.106-.073.28-.162.394-.032.172.129.23.17.353.208.27.338.638.275 1.04a.486.486 0 0 1-.227.256c-.163-.042-.438.048-.564-.115zm21.178 12.888c.034-.01.08.007.064.056.016.048-.04.058-.066.074h-.046c-.015-.042-.025-.13.048-.13zm.034-.454c.086-.121.215-.238.385-.238.073.189-.112.248-.194.378-.064.018-.102.065-.184.04a.18.18 0 0 1-.007-.18zm.731.6c-.038.18-.258.213-.411.261-.047-.022-.113-.007-.129-.073-.008-.08-.031-.211.065-.245.177-.082.323.007.475.056zm-25.428-.075c-.016-.042-.09-.082-.049-.13.065-.014.104.026.129.056.016.067-.032.083-.08.074zm-.137-.427c-.128-.08-.276-.18-.267-.368.186-.065.387.114.42.295-.007.082-.081.082-.153.073zm-.2.69c-.156-.024-.357-.065-.413-.246.152-.12.477-.18.565.05.024.115-.057.18-.153.196zM45.185.352c-.022.073-.097.157-.2.138a.597.597 0 0 0-.469 0 .457.457 0 0 0-.218.437c-.233.164-.653.024-.725.392-.047.115.026.206.081.287-.064.263.04.493.17.68.218 0 .242.27.46.255.08-.082.016-.238.1-.32.078-.04.19-.016.23.074.064.172-.152.263-.193.41-.08.018-.097-.106-.178-.05-.071.132-.208.204-.151.394.032.082.087.18.178.221.104.107.273.059.379.165 0 .042-.042.082-.075.113-.2-.047-.395.035-.562.14-.114.166-.355.272-.212.508-.16.239-.264.502-.474.699-.098.163.224.14.097.327.04.271-.331.336-.138.582.04.255-.257.46-.096.688.023.624-.049 1.132-.072 1.764.023.81-.46 1.468-.832 2.033-.224.188-.33.46-.428.73-.047.197-.12.403-.161.598-.16.344-.234.787-.555 1.015-.226.109-.477.026-.646-.147-.25-.326-.114-.811.025-1.139.257-.45.58-.812.927-1.196.477-.698 1.04-1.526.71-2.485.007-.213.03-.46.022-.671-.095-.22-.153-.56-.457-.566-.185-.355-.615-.322-.944-.427-.08-.01-.16-.041-.233.025a1.856 1.856 0 0 0 0 .59c.032.196.032.408.089.574.265.089.144.41.32.558.13.156.38.164.548.254.147.514-.169.983-.386 1.378-.702.877-1.709 1.695-1.54 2.991.098.305.219.6.476.804.396.285.968.408 1.445.213.135-.014.226-.213.379-.138.144.22.144.507.087.768-.063.068-.161.057-.25.057-.08.01-.103.085-.138.141-.015.419-.321.869-.047 1.254.064.219.186.354.217.582-.095.081-.256-.008-.386-.008-.233-.14-.21-.444-.25-.697-.08-.278-.388-.41-.645-.485-.096-.008-.153-.114-.274-.072-.097.237.016.531.161.737.017.06.162.074.088.163-.234.052-.508.035-.694.2a.138.138 0 0 0-.032.156c.241.172.453.473.807.473a.44.44 0 0 0 .324-.218c.047-.035.094-.043.135.008.009.056-.005.114-.054.13-.032.08-.144.204-.032.285.86.216 1.82.378 2.765.337.057.016.121.059.079.131-.097.09-.2.164-.242.278-.047.091.027.131.09.148.41-.057.856.017 1.256-.04.396-.074.758-.286.96-.64.533-.1 1.064-.271 1.612-.354.105.098-.143.23-.081.36.508.174 1.16.189 1.67-.056.086-.041.153-.131.266-.131.023.015.056.04.04.082-.137.164-.42.221-.445.477.105.114.324.121.478.13.297.124.67.058.968.058.192-.025.369-.164.557-.248.065.069.023.173.031.263.09.149.137.321.324.377.144.083.266-.04.403-.064.193-.051.354-.117.549-.188.145-.066.145.096.236.164.094 0 .167-.041.246-.058.204-.132.365-.28.588-.387.244.156.453.412.777.445.07-.033.07-.148.152-.173.322.115.644.222.992.287a.841.841 0 0 0 .259-.172c.169-.13.04-.36.176-.5.468.403 1.202.329 1.758.229.088-.057.24-.01.274-.139 0-.123-.12-.157-.17-.254-.097-.074-.25-.141-.3-.247.024-.025.05-.058.09-.043a2.28 2.28 0 0 0 1.838.222c.25-.138-.13-.27-.018-.4.493.047.96.219 1.46.303.22.041.243.253.436.378.5.433 1.258.318 1.91.366.05 0 .163.01.137-.087-.056-.183-.208-.24-.264-.412.013-.018.031-.041.056-.05.45.05.942.024 1.393-.065.451-.051.888-.173 1.348-.256.168-.155-.114-.278-.042-.465.153-.048.17.156.281.214.403.154.654-.23.952-.41l.017-.074c-.114-.238-.395-.254-.638-.287-.032-.024-.121.01-.105-.073.226-.182.332-.47.314-.771-.031-.067-.072-.067-.128-.072-.281.131-.667.177-.798.51-.136.194 0 .547-.219.688-.16.017-.314.156-.468.08-.014-.049-.04-.08.026-.115.01-.115.106-.204.144-.295-.01-.067.056-.073.033-.149.257-.344.057-.827 0-1.211.023-.305-.355-.083-.42-.298-.032-.245-.072-.565.122-.736.055-.025.136 0 .16.048l.494.171c.45.059.893-.097 1.222-.359.42-.412.55-1.067.333-1.633-.227-.59-.62-1.057-1.017-1.548-.264-.353-.562-.566-.676-.985-.179-.248-.179-.607-.169-.886.03-.082.135-.089.224-.082.201-.024.33-.189.435-.327 0-.222.193-.33.267-.526-.048-.376.225-.712.031-1.073-.28-.034-.571.074-.846.138l-.055.042c-.194.025-.16.32-.379.28-.22.156-.33.425-.315.721.12.492-.146.929-.04 1.443.057.394.275.705.435 1.033.33.45.702.91 1.055 1.337.137.27.298.533.331.867 0 .305-.056.6-.314.74-.137.042-.332.058-.477-.016-.402-.419-.54-1.01-.7-1.566-.219-.723-.781-1.174-1.025-1.843-.267-.764-.153-1.682-.273-2.5.023-.065-.008-.173.057-.198.103-.073-.018-.179-.026-.253-.062-.142-.062-.29-.087-.44.177-.212-.136-.302-.13-.5-.025-.114-.047-.286.104-.326.01-.132-.127-.156-.184-.263-.065-.253-.395-.429-.282-.748l-.219-.286c-.143-.221-.459-.05-.618-.196.015-.194.258-.107.355-.211a.384.384 0 0 0 .218-.328c.016-.157-.144-.2-.201-.313a.189.189 0 0 1-.155.05c-.04-.124-.176-.215-.17-.354.017-.056.065-.14.14-.14.207 0 .101.247.19.354.122.025.204-.107.268-.173.25 0 .297-.304.37-.483-.112-.23.137-.368.047-.6-.12-.196-.37-.294-.612-.311-.145-.066-.048-.264-.136-.362-.177-.238-.493-.162-.75-.13-.058-.025-.073-.089-.073-.14-.159-.369-.573-.36-.942-.36-.131.139-.346.074-.524.105-.147.01-.089.148-.187.223-.25 0-.425.163-.646.244.016.073-.021.108-.056.171-.242.108-.296.38-.473.543l.013.246c-.048.09-.16.107-.265.09-.233-.058-.395.221-.63.1-.219.014-.46.163-.532.384-.12.066-.233.18-.346.263-.018-.123-.064-.23-.04-.367-.162-.19.057-.362-.016-.584-.063-.327.017-.746-.242-.968-.202.023-.355.164-.548.212-.153.305-.572.132-.693.45-.146.273-.622.297-.622.666-.082.13.018.27 0 .417a.638.638 0 0 0-.225.615c-.048.165-.187.328-.145.51.024.164.218.172.33.26.033.158-.097.271-.185.394-.145.082-.34.139-.516.082-.224-.115-.321-.336-.363-.584-.016-.194.202-.063.281-.072.113.025.219-.042.275-.138.081-.083.056-.255.025-.362.016-.205.283-.304.192-.565-.246-.328.154-.632-.08-.969-.289-.22-.257-.632-.605-.812-.04-.22-.266-.343-.362-.524-.243 0-.333.279-.51.388-.097.153-.169.349-.315.439.008.231-.184.32-.297.453-.16.212-.14.557-.024.778-.08.172-.186.392-.09.607.218.123.067.46.243.623.098.123.248.1.388.107.103.08-.015.204 0 .312-.122.188-.347.36-.598.344-.193-.025-.362-.18-.476-.328-.099-.18.136-.13.21-.197.097-.13.103-.21.097-.377-.161-.147-.032-.394-.016-.556.031-.134-.042-.263-.064-.378-.34-.125-.058-.582-.29-.77-.092-.204-.323-.164-.478-.27-.048-.222-.272-.388-.491-.436-.153-.14-.347-.238-.5-.35-.079-.044-.177.006-.212.088-.047.245-.184.442-.184.713-.266.253.09.583-.08.844-.025.138.025.296-.073.378-.096-.14-.2-.28-.354-.337-.13-.025-.153-.164-.219-.246-.158-.204-.467-.074-.652-.246-.09-.05-.227.009-.308-.083-.04-.049-.04-.105 0-.146.04-.133-.048-.197-.136-.254-.065-.247-.37-.387-.428-.639-.217-.1-.419-.238-.66-.279-.007-.064-.024-.124-.072-.163l-.443-.046c-.096-.073-.233-.098-.375-.1h-.013a2.15 2.15 0 0 0-.402.05c-.098.082-.276.165-.29.303z" mask="url(#b)"/>
        <path fill="#000" d="M56.042 14.247c-.132.116-.268.278-.445.338-.46.32-1.235.351-1.7.025-.55-.247-.89-.847-.865-1.51.097-.5.267-.984.701-1.256.517-.416 1.315-.407 1.886-.09.308.23.55.485.704.853.178.543.106 1.237-.281 1.64m-3.019-2.336c-.073-.05-.168-.075-.16-.181l.525-.532c.063-.016.08.05.111.092-.015.172.307.122.178.302l-.298.22c-.097.124-.161.261-.298.318-.082-.04-.049-.138-.058-.22m-.25-.533A96.183 96.183 0 0 1 50.17 8.82c-.039-.108.033-.18.096-.237.114-.048.179.074.243.115.252.287.541.538.846.804.14.032.196-.133.268-.222l.442-.411c.056-.212-.204-.303-.29-.44-.258-.124-.371.556-.59.081.049-.181.233-.288.338-.418.074-.01.057-.075.099-.116.167-.212.435-.443.62-.632h.063c.155.165.355.295.453.493-.008.107-.122.205-.22.23-.022.017-.055-.025-.04-.04-.007-.084.073-.125.04-.215-.103-.059-.134-.205-.273-.231-.12.025-.136.15-.225.207-.08.114-.347.204-.243.41.332.285.56.604.921.859.09.121.185.221.316.321h.08l.46-.452c.017-.18-.151-.255-.265-.392-.09-.05-.13.088-.226.056-.04-.09.033-.122.064-.188.072-.009.08-.09.154-.09.216.114.322.31.523.45.05.205-.17.23-.243.36-.178.183-.33.404-.555.525-.05.157-.212.181-.3.312-.128.04-.128-.106-.185-.137-.007-.166.235-.182.22-.37-.109-.146-.277-.247-.39-.393-.09-.059-.162.04-.217.09-.114.188-.365.327-.5.524v.139c.378.326.694.68 1.048.999.072.182.354.222.306.46-.058.048-.136.15-.234.106m3.728.829c-.42-.672-1.178-1.032-1.976-.975-.12.033-.226-.023-.322.057-.209.166-.304-.149-.468-.139-.095-.066-.095-.205-.137-.298-.184-.138-.216.198-.387.133-.396-.361-.692-.69-1.064-1.008-.017-.114-.194-.122-.162-.27a.952.952 0 0 1 .323-.325c.417.104-.186.31-.026.497.152.122.284.33.468.377.395-.302.74-.713 1.103-1.034.098-.146.324-.27.274-.46-.24-.27-.532-.449-.764-.736-.155-.058-.245.123-.332.22-.072.157-.282.18-.248.37.145.056.242.41.44.205.041-.008.099-.025.122.024.01.115-.088.154-.151.22-.097.099-.203-.023-.276-.08-.283-.264-.587-.542-.855-.836-.055-.133.105-.181.137-.28.035-.007.081-.04.113 0a.101.101 0 0 1-.032.099c-.073.18.098.279.194.377.104.016.192-.049.25-.139.087-.14.33-.221.347-.402-.162-.23-.363-.394-.564-.582-.089-.049-.146-.197-.272-.154-.466.402-.854.877-1.305 1.32-.106.261.242.393.38.564.208.018.241-.31.45-.246.13.205-.217.303-.3.468-.071.05-.176.017-.193-.073-.306-.237-.57-.572-.885-.787-.065 0-.163-.008-.226.05a.644.644 0 0 0-.283.556c.331.352.678.72 1.015 1.057.066.034.082.163.18.172.241.262.588.566.803.811.25.188.478.434.71.664.041.125-.08.196-.127.253a.113.113 0 0 0 .03.139c.322-.113.185.297.403.354-.152.468-.258 1.114 0 1.558.024.115.105.196.138.312.258.327.58.664 1.007.786.426.221 1.074.148 1.507-.032.412-.238.808-.508 1.016-.968.285-.502.244-1.196 0-1.705 0-.042-.087-.05-.055-.114" mask="url(#b)"/>
    </g>
</svg>
